<?xml version="1.0" encoding="UTF-8" standalone="no"?>
<!-- Created with Inkscape (http://www.inkscape.org/) -->

<svg
   xmlns:dc="http://purl.org/dc/elements/1.1/"
   xmlns:cc="http://creativecommons.org/ns#"
   xmlns:rdf="http://www.w3.org/1999/02/22-rdf-syntax-ns#"
   xmlns:svg="http://www.w3.org/2000/svg"
   xmlns="http://www.w3.org/2000/svg"
   xmlns:sodipodi="http://sodipodi.sourceforge.net/DTD/sodipodi-0.dtd"
   xmlns:inkscape="http://www.inkscape.org/namespaces/inkscape"
   id="svg2"
   version="1.1"
   inkscape:version="0.92.2 5c3e80d, 2017-08-06"
   width="750"
   height="720"
   xml:space="preserve"
   sodipodi:docname="Etats_matiere.svg"><metadata
     id="metadata8"><rdf:RDF><cc:Work
         rdf:about=""><dc:format>image/svg+xml</dc:format><dc:type
           rdf:resource="http://purl.org/dc/dcmitype/StillImage" /><dc:title></dc:title></cc:Work></rdf:RDF></metadata><defs
     id="defs6"><inkscape:perspective
       sodipodi:type="inkscape:persp3d"
       inkscape:vp_x="0 : 0.5 : 1"
       inkscape:vp_y="0 : 1000 : 0"
       inkscape:vp_z="1 : 0.5 : 1"
       inkscape:persp3d-origin="0.5 : 0.33333333 : 1"
       id="perspective10" /></defs><sodipodi:namedview
     pagecolor="#ffffff"
     bordercolor="#666666"
     borderopacity="1"
     objecttolerance="10"
     gridtolerance="10"
     guidetolerance="10"
     inkscape:pageopacity="0"
     inkscape:pageshadow="2"
     inkscape:window-width="1920"
     inkscape:window-height="1016"
     id="namedview4"
     showgrid="false"
     inkscape:zoom="0.6342957"
     inkscape:cx="329.27052"
     inkscape:cy="351.80286"
     inkscape:window-x="0"
     inkscape:window-y="30"
     inkscape:window-maximized="1"
     inkscape:current-layer="g12" /><g
     id="g12"
     inkscape:groupmode="layer"
     inkscape:label="Etats_matiere - copie"
     transform="matrix(1.25,0,0,-1.25,0,720.00001)"><path
       inkscape:connector-curvature="0"
       id="path32"
       style="fill:#f4f3b5;fill-opacity:1;fill-rule:nonzero;stroke:none"
       d="m 235.59121,315.94209 c 0,-8.93018 -7.30664,-16.23682 -16.23682,-16.23682 0,0 -179.95947,0 -179.95947,0 -8.93017,0 -16.23681,7.30664 -16.23681,16.23682 0,0 0,77.33496 0,77.33496 0,8.93018 7.30664,16.23682 16.23681,16.23682 0,0 179.95947,0 179.95947,0 8.93018,0 16.23682,-7.30664 16.23682,-16.23682 0,0 0,-77.33496 0,-77.33496 z" /><path
       inkscape:connector-curvature="0"
       id="path34"
       style="fill:none;stroke:#e7e551;stroke-width:4;stroke-linecap:butt;stroke-linejoin:round;stroke-miterlimit:4;stroke-dasharray:none;stroke-opacity:1"
       d="m 235.59121,315.94209 c 0,-8.93018 -7.30664,-16.23682 -16.23682,-16.23682 0,0 -179.95947,0 -179.95947,0 -8.93017,0 -16.23681,7.30664 -16.23681,16.23682 0,0 0,77.33496 0,77.33496 0,8.93018 7.30664,16.23682 16.23681,16.23682 0,0 179.95947,0 179.95947,0 8.93018,0 16.23682,-7.30664 16.23682,-16.23682 0,0 0,-77.33496 0,-77.33496 z" /><path
       inkscape:connector-curvature="0"
       id="path36"
       style="fill:#231f20;fill-opacity:1;fill-rule:nonzero;stroke:none"
       d="m 117.84561,338.44941 c -2.39209,-0.91992 -7.1753,-2.26904 -12.75635,-2.26904 -6.25586,0 -11.40723,1.59424 -15.45508,5.45801 -3.55713,3.43457 -5.76465,8.9541 -5.76465,15.39355 0,12.32715 8.52442,21.34278 22.38477,21.34278 4.78369,0 8.58593,-1.04297 10.36474,-1.90137 0,0 -1.34912,-4.35449 -1.34912,-4.35449 -2.20801,1.04297 -4.96777,1.77881 -9.13818,1.77881 -10.05811,0 -16.62012,-6.25586 -16.62012,-16.62012 0,-10.48731 6.25537,-16.68164 15.94531,-16.68164 3.4961,0 5.8877,0.49072 7.11426,1.104 0,0 0,12.32715 0,12.32715 0,0 -8.34082,0 -8.34082,0 0,0 0,4.29297 0,4.29297 0,0 13.61524,0 13.61524,0 0,0 0,-19.87061 0,-19.87061 z" /><path
       inkscape:connector-curvature="0"
       id="path38"
       style="fill:#231f20;fill-opacity:1;fill-rule:nonzero;stroke:none"
       d="m 141.88564,351.75801 c -5.8872,0.12256 -12.57226,-0.91992 -12.57226,-6.68506 0,-3.55713 2.33057,-5.15186 5.02881,-5.15186 3.92529,0 6.43945,2.45362 7.29834,4.96778 0.18408,0.55224 0.24511,1.16552 0.24511,1.71728 0,0 0,5.15186 0,5.15186 z m 5.27442,-8.03418 c 0,-2.57569 0.12256,-5.09033 0.4292,-7.11426 0,0 -4.84473,0 -4.84473,0 0,0 -0.49072,3.74121 -0.49072,3.74121 0,0 -0.18408,0 -0.18408,0 -1.59473,-2.33057 -4.84473,-4.41601 -9.07666,-4.41601 -6.01026,0 -9.07666,4.23193 -9.07666,8.5249 0,7.17529 6.37841,11.10058 17.84668,11.03906 0,0 0,0.61328 0,0.61328 0,2.45313 -0.67481,6.93018 -6.7461,6.86914 -2.82129,0 -5.70361,-0.79736 -7.78857,-2.20801 0,0 -1.22656,3.61866 -1.22656,3.61866 2.45312,1.5332 6.07128,2.57568 9.8125,2.57568 9.13769,0 11.3457,-6.19434 11.3457,-12.14307 0,0 0,-11.10058 0,-11.10058 z" /><path
       inkscape:connector-curvature="0"
       id="path40"
       style="fill:#231f20;fill-opacity:1;fill-rule:nonzero;stroke:none"
       d="m 152.43398,339.7375 c 0,0 13.43116,17.47852 13.43116,17.47852 1.34912,1.65576 2.51416,3.0664 3.9248,4.66113 0,0 0,0.12256 0,0.12256 0,0 -16.12939,0 -16.12939,0 0,0 0,4.29297 0,4.29297 0,0 22.63037,0 22.63037,0 0,0 0,-3.37305 0,-3.37305 0,0 -13.3086,-17.29492 -13.3086,-17.29492 -1.22656,-1.59424 -2.45312,-3.12744 -3.80224,-4.59961 0,0 0,-0.12256 0,-0.12256 0,0 17.35596,0 17.35596,0 0,0 0,-4.29297 0,-4.29297 0,0 -24.10206,0 -24.10206,0 0,0 0,3.12793 0,3.12793 z" /><path
       inkscape:connector-curvature="0"
       id="path42"
       style="fill:#d4efd7;fill-opacity:1;fill-rule:nonzero;stroke:none"
       d="m 235.59072,43.03242 c 0,-8.93066 -7.30664,-16.2373 -16.23681,-16.2373 0,0 -179.95899,0 -179.95899,0 -8.93017,0 -16.23681,7.30664 -16.23681,16.2373 0,0 0,77.33594 0,77.33594 0,8.93066 7.30664,16.2373 16.23681,16.2373 0,0 179.95899,0 179.95899,0 8.93017,0 16.23681,-7.30664 16.23681,-16.2373 0,0 0,-77.33594 0,-77.33594 z" /><path
       inkscape:connector-curvature="0"
       id="path44"
       style="fill:none;stroke:#55c26b;stroke-width:4;stroke-linecap:butt;stroke-linejoin:round;stroke-miterlimit:4;stroke-dasharray:none;stroke-opacity:1"
       d="m 235.59072,43.03242 c 0,-8.93066 -7.30664,-16.2373 -16.23681,-16.2373 0,0 -179.95899,0 -179.95899,0 -8.93017,0 -16.23681,7.30664 -16.23681,16.2373 0,0 0,77.33594 0,77.33594 0,8.93066 7.30664,16.2373 16.23681,16.2373 0,0 179.95899,0 179.95899,0 8.93017,0 16.23681,-7.30664 16.23681,-16.2373 0,0 0,-77.33594 0,-77.33594 z" /><path
       inkscape:connector-curvature="0"
       id="path46"
       style="fill:#231f20;fill-opacity:1;fill-rule:nonzero;stroke:none"
       d="m 54.40127,70.20137 c 2.39209,-1.53321 5.82617,-2.69824 9.50586,-2.69824 5.4585,0 8.64746,2.82031 8.64746,7.05273 0,3.80273 -2.20801,6.07129 -7.78857,8.15625 -6.7461,2.4541 -10.91651,6.01074 -10.91651,11.77539 0,6.43945 5.33545,11.22363 13.36963,11.22363 4.17041,0 7.29785,-0.98144 9.07666,-2.02441 0,0 -1.47217,-4.35352 -1.47217,-4.35352 -1.28759,0.79688 -4.04736,1.96192 -7.78857,1.96192 -5.64209,0 -7.78858,-3.37305 -7.78858,-6.19434 0,-3.86328 2.51416,-5.76465 8.21778,-7.97265 6.9917,-2.75977 10.4873,-6.07129 10.4873,-12.14258 0,-6.37891 -4.66113,-11.95996 -14.41211,-11.95996 -3.98632,0 -8.34082,1.22656 -10.54882,2.69824 0,0 1.41064,4.47754 1.41064,4.47754 z" /><path
       inkscape:connector-curvature="0"
       id="path48"
       style="fill:#231f20;fill-opacity:1;fill-rule:nonzero;stroke:none"
       d="m 97.6376,67.07344 c 5.15185,0 9.01562,4.8457 9.01562,11.59179 0,5.02832 -2.51465,11.34571 -8.89306,11.34571 -6.3169,0 -9.07666,-5.8877 -9.07666,-11.53028 0,-6.50097 3.67968,-11.40722 8.89306,-11.40722 0,0 0.061,0 0.061,0 z m -0.18408,-4.04785 c -7.97266,0 -14.22803,5.88769 -14.22803,15.27148 0,9.93555 6.56201,15.76172 14.71875,15.76172 8.5249,0 14.28955,-6.19434 14.28955,-15.20996 0,-11.03906 -7.66602,-15.82324 -14.71875,-15.82324 0,0 -0.0615,0 -0.0615,0 z" /><path
       inkscape:connector-curvature="0"
       id="path50"
       style="fill:#231f20;fill-opacity:1;fill-rule:nonzero;stroke:none"
       d="m 119.04092,107.24434 c 0,0 5.39697,0 5.39697,0 0,0 0,-43.54395 0,-43.54395 0,0 -5.39697,0 -5.39697,0 0,0 0,43.54395 0,43.54395 z" /><path
       inkscape:connector-curvature="0"
       id="path52"
       style="fill:#231f20;fill-opacity:1;fill-rule:nonzero;stroke:none"
       d="m 133.3915,63.70039 c 0,0 0,29.68359 0,29.68359 0,0 5.39698,0 5.39698,0 0,0 0,-29.68359 0,-29.68359 0,0 -5.39698,0 -5.39698,0 z m 2.57569,35.1416 c -2.02393,0 -3.37305,1.59473 -3.37305,3.4961 0,1.90136 1.41065,3.43457 3.49561,3.43457 2.08545,0 3.43457,-1.53321 3.43457,-3.43457 0,-1.90137 -1.34912,-3.4961 -3.49561,-3.4961 0,0 -0.0615,0 -0.0615,0 z" /><path
       inkscape:connector-curvature="0"
       id="path54"
       style="fill:#231f20;fill-opacity:1;fill-rule:nonzero;stroke:none"
       d="m 167.98037,81.30195 c 0,0.73633 -0.061,1.59473 -0.24512,2.33106 -0.79736,3.37304 -3.74121,6.19336 -7.78857,6.19336 -5.58105,0 -8.89307,-4.90625 -8.89307,-11.40723 0,-6.07129 3.00537,-11.03906 8.77002,-11.03906 3.61866,0 6.93018,2.45312 7.91162,6.43945 0.18409,0.73633 0.24512,1.47266 0.24512,2.33106 0,0 0,5.15136 0,5.15136 z m 5.39697,25.94239 c 0,0 0,-35.87793 0,-35.87793 0,-2.63672 0.0615,-5.64258 0.24561,-7.66602 0,0 -4.84522,0 -4.84522,0 0,0 -0.24511,5.15137 -0.24511,5.15137 0,0 -0.12256,0 -0.12256,0 -1.65625,-3.31153 -5.21289,-5.82617 -10.05811,-5.82617 -7.17529,0 -12.75634,6.07129 -12.75634,15.08691 -0.0615,9.93555 6.13281,15.94629 13.3081,15.94629 4.6001,0 7.6665,-2.14649 8.9541,-4.47754 0,0 0.12256,0 0.12256,0 0,0 0,17.66309 0,17.66309 0,0 5.39697,0 5.39697,0 z" /><path
       inkscape:connector-curvature="0"
       id="path56"
       style="fill:#231f20;fill-opacity:1;fill-rule:nonzero;stroke:none"
       d="m 201.15908,81.48555 c 0.061,3.37402 -1.41064,8.7705 -7.4209,8.7705 -5.51953,0 -7.85009,-5.02929 -8.27929,-8.7705 0,0 15.70019,0 15.70019,0 z m -15.76172,-3.86328 c 0.12256,-7.29883 4.72217,-10.30372 10.11914,-10.30372 3.86377,0 6.25586,0.67481 8.21827,1.47168 0,0 0.98095,-3.80175 0.98095,-3.80175 -1.90088,-0.8584 -5.21289,-1.90137 -9.93506,-1.90137 -9.07666,0 -14.59619,6.07129 -14.59619,14.96484 0,9.01465 5.33545,16.06739 13.98291,16.06739 9.68994,0 12.20459,-8.52442 12.20459,-13.98243 0,-1.10449 -0.0615,-1.96289 -0.18408,-2.57617 0,0 -20.79053,0.0615 -20.79053,0.0615 z" /><path
       inkscape:connector-curvature="0"
       id="path58"
       style="fill:#badbf4;fill-opacity:1;fill-rule:nonzero;stroke:none"
       d="m 490.76016,179.48945 c 0,-8.93066 -7.30664,-16.2373 -16.23731,-16.2373 0,0 -179.95898,0 -179.95898,0 -8.93067,0 -16.23731,7.30664 -16.23731,16.2373 0,0 0,77.33301 0,77.33301 0,8.93018 7.30664,16.23682 16.23731,16.23682 0,0 179.95898,0 179.95898,0 8.93067,0 16.23731,-7.30664 16.23731,-16.23682 0,0 0,-77.33301 0,-77.33301 z" /><path
       inkscape:connector-curvature="0"
       id="path60"
       style="fill:none;stroke:#88b9e4;stroke-width:4;stroke-linecap:butt;stroke-linejoin:miter;stroke-miterlimit:4;stroke-dasharray:none;stroke-opacity:1"
       d="m 490.76016,179.48945 c 0,-8.93066 -7.30664,-16.2373 -16.23731,-16.2373 0,0 -179.95898,0 -179.95898,0 -8.93067,0 -16.23731,7.30664 -16.23731,16.2373 0,0 0,77.33301 0,77.33301 0,8.93018 7.30664,16.23682 16.23731,16.23682 0,0 179.95898,0 179.95898,0 8.93067,0 16.23731,-7.30664 16.23731,-16.23682 0,0 0,-77.33301 0,-77.33301 z" /><path
       inkscape:connector-curvature="0"
       id="path62"
       style="fill:#231f20;fill-opacity:1;fill-rule:nonzero;stroke:none"
       d="m 293.50234,241.49043 c 0,0 5.39746,0 5.39746,0 0,0 0,-36.8584 0,-36.8584 0,0 17.66211,0 17.66211,0 0,0 0,-4.47656 0,-4.47656 0,0 -23.05957,0 -23.05957,0 0,0 0,41.33496 0,41.33496 z" /><path
       inkscape:connector-curvature="0"
       id="path64"
       style="fill:#231f20;fill-opacity:1;fill-rule:nonzero;stroke:none"
       d="m 322.32559,200.15547 c 0,0 0,29.68262 0,29.68262 0,0 5.39746,0 5.39746,0 0,0 0,-29.68262 0,-29.68262 0,0 -5.39746,0 -5.39746,0 z m 2.57617,35.1416 c -2.02344,0 -3.37305,1.59375 -3.37305,3.49512 0,1.90136 1.41016,3.43457 3.49609,3.43457 2.08497,0 3.43458,-1.53321 3.43458,-3.43457 0,-1.90137 -1.34961,-3.49512 -3.4961,-3.49512 0,0 -0.0615,0 -0.0615,0 z" /><path
       inkscape:connector-curvature="0"
       id="path66"
       style="fill:#231f20;fill-opacity:1;fill-rule:nonzero;stroke:none"
       d="m 356.91543,217.81758 c 0,0.79785 -0.0615,1.59472 -0.24609,2.26953 -0.8584,3.31152 -3.67969,6.13281 -7.72657,6.13281 -5.58105,0 -8.9541,-4.72265 -8.9541,-11.40722 0,-5.94922 2.82129,-11.03907 8.76953,-11.03907 3.4961,0 6.50098,2.14649 7.72754,5.8877 0.24512,0.73535 0.42969,1.77832 0.42969,2.57617 0,0 0,5.58008 0,5.58008 z m 0,-13.12403 c 0,0 -0.12305,0 -0.12305,0 -1.59472,-2.88281 -4.90625,-5.21289 -9.68945,-5.21289 -6.93066,0 -12.57324,5.94922 -12.57324,15.02539 0,11.10059 7.17578,16.00684 13.43164,16.00684 4.59961,0 7.66601,-2.26855 9.13769,-5.15137 0,0 0.12305,0 0.12305,0 0,0 0.18359,4.47657 0.18359,4.47657 0,0 5.15137,0 5.15137,0 -0.18359,-2.45313 -0.24512,-5.02832 -0.24512,-8.15625 0,0 0,-33.66993 0,-33.66993 0,0 -5.39648,0 -5.39648,0 0,0 0,16.68164 0,16.68164 z" /><path
       inkscape:connector-curvature="0"
       id="path68"
       style="fill:#231f20;fill-opacity:1;fill-rule:nonzero;stroke:none"
       d="m 396.04238,208.2502 c 0,-3.06641 0.0615,-5.76465 0.24512,-8.09473 0,0 -4.7832,0 -4.7832,0 0,0 -0.30762,4.84473 -0.30762,4.84473 0,0 -0.12207,0 -0.12207,0 -1.34961,-2.39161 -4.53809,-5.51954 -9.8125,-5.51954 -4.66113,0 -10.24219,2.63672 -10.24219,13.00196 0,0 0,17.35547 0,17.35547 0,0 5.39746,0 5.39746,0 0,0 0,-16.37403 0,-16.37403 0,-5.64258 1.77832,-9.50683 6.62305,-9.50683 3.61816,0 6.13281,2.51465 7.11426,4.96777 0.30664,0.73633 0.49023,1.71777 0.49023,2.75977 0,0 0,18.15332 0,18.15332 0,0 5.39746,0 5.39746,0 0,0 0,-21.58789 0,-21.58789 z" /><path
       inkscape:connector-curvature="0"
       id="path70"
       style="fill:#231f20;fill-opacity:1;fill-rule:nonzero;stroke:none"
       d="m 404.99453,200.15547 c 0,0 0,29.68262 0,29.68262 0,0 5.39746,0 5.39746,0 0,0 0,-29.68262 0,-29.68262 0,0 -5.39746,0 -5.39746,0 z m 2.57617,35.1416 c -2.02343,0 -3.37304,1.59375 -3.37304,3.49512 0,1.90136 1.41015,3.43457 3.49609,3.43457 2.08496,0 3.43457,-1.53321 3.43457,-3.43457 0,-1.90137 -1.34961,-3.49512 -3.49609,-3.49512 0,0 -0.0615,0 -0.0615,0 z" /><path
       inkscape:connector-curvature="0"
       id="path72"
       style="fill:#231f20;fill-opacity:1;fill-rule:nonzero;stroke:none"
       d="m 439.58438,217.75703 c 0,0.73535 -0.0615,1.59375 -0.24512,2.33008 -0.79785,3.37305 -3.74121,6.19434 -7.78906,6.19434 -5.58106,0 -8.89258,-4.90625 -8.89258,-11.40723 0,-6.07129 3.00488,-11.03906 8.76953,-11.03906 3.61816,0 6.93066,2.45312 7.91211,6.43945 0.18359,0.73633 0.24512,1.47168 0.24512,2.33008 0,0 0,5.15234 0,5.15234 z m 5.39648,25.94141 c 0,0 0,-35.87696 0,-35.87696 0,-2.63769 0.0615,-5.64257 0.24512,-7.66601 0,0 -4.84473,0 -4.84473,0 0,0 -0.24512,5.15137 -0.24512,5.15137 0,0 -0.12304,0 -0.12304,0 -1.65528,-3.31153 -5.21289,-5.82618 -10.05762,-5.82618 -7.17578,0 -12.75684,6.07129 -12.75684,15.08692 -0.0605,9.93555 6.13282,15.94531 13.3086,15.94531 4.59961,0 7.66601,-2.14648 8.9541,-4.47656 0,0 0.12305,0 0.12305,0 0,0 0,17.66211 0,17.66211 0,0 5.39648,0 5.39648,0 z" /><path
       inkscape:connector-curvature="0"
       id="path74"
       style="fill:#231f20;fill-opacity:1;fill-rule:nonzero;stroke:none"
       d="m 472.76309,217.94063 c 0.0615,3.37304 -1.41016,8.7705 -7.4209,8.7705 -5.51953,0 -7.84961,-5.02929 -8.2793,-8.7705 0,0 15.7002,0 15.7002,0 z m -15.76172,-3.86329 c 0.12304,-7.29882 4.72265,-10.30371 10.12011,-10.30371 3.86329,0 6.25489,0.67481 8.21778,1.47168 0,0 0.98144,-3.80176 0.98144,-3.80176 -1.90136,-0.85937 -5.21289,-1.90136 -9.93554,-1.90136 -9.07715,0 -14.59668,6.07129 -14.59668,14.96386 0,9.01563 5.33593,16.06836 13.9834,16.06836 9.69042,0 12.2041,-8.52441 12.2041,-13.98339 0,-1.10352 -0.0606,-1.96192 -0.1836,-2.5752 0,0 -20.79101,0.0615 -20.79101,0.0615 z" /><path
       inkscape:connector-curvature="0"
       id="path124"
       style="fill:#231f20;fill-opacity:1;fill-rule:nonzero;stroke:none"
       d="m 287.03115,364.8332 c 0,0 1.47217,-0.93213 1.47217,-0.93213 0,0 -6.36523,-10.05468 -6.36523,-10.05468 0,0 4.81787,-3.04981 4.81787,-3.04981 0,0 -0.77295,-1.22119 -0.77295,-1.22119 0,0 -6.29004,3.98145 -6.29004,3.98145 0,0 7.13818,11.27636 7.13818,11.27636 z" /><path
       inkscape:connector-curvature="0"
       id="path126"
       style="fill:#231f20;fill-opacity:1;fill-rule:nonzero;stroke:none"
       d="m 294.52676,357.7209 c -0.55176,0.34912 -0.64453,1.01709 -0.31641,1.53564 0.3291,0.51856 0.97754,0.69385 1.54688,0.33399 0.56933,-0.36084 0.67187,-1.01172 0.34375,-1.53028 -0.32813,-0.51904 -0.97168,-0.7207 -1.55762,-0.35009 0,0 -0.0166,0.0107 -0.0166,0.0107 z m -6.771,-9.14111 c 0,0 5.12549,8.09716 5.12549,8.09716 0,0 1.47266,-0.93213 1.47266,-0.93213 0,0 -5.12647,-8.09716 -5.12647,-8.09716 0,0 -1.47168,0.93213 -1.47168,0.93213 z" /><path
       inkscape:connector-curvature="0"
       id="path128"
       style="fill:#231f20;fill-opacity:1;fill-rule:nonzero;stroke:none"
       d="m 300.24063,347.42451 c 0.13769,0.21778 0.25878,0.4458 0.32519,0.66162 0.33789,1.05176 0.0547,2.3086 -1.04883,3.00733 -1.52246,0.96386 -3.25781,0.25781 -4.41211,-1.56543 -1.02734,-1.62305 -1.13672,-3.49854 0.48535,-4.52539 0.95411,-0.60401 2.14454,-0.5376 3.125,0.27148 0.19434,0.1582 0.42481,0.41065 0.56153,0.62842 0,0 0.96387,1.52197 0.96387,1.52197 z m -2.26563,-3.57959 c 0,0 -0.0342,0.021 -0.0342,0.021 -0.93262,-0.51074 -2.23828,-0.57471 -3.54297,0.25097 -1.89062,1.19678 -2.40283,3.79444 -0.83594,6.27051 1.917,3.02783 4.72266,3.12647 6.42872,2.04639 1.25488,-0.79395 1.69921,-1.94238 1.60351,-2.98291 0,0 0.0332,-0.021 0.0332,-0.021 0,0 0.82325,1.18946 0.82325,1.18946 0,0 1.40527,-0.88965 1.40527,-0.88965 -0.47461,-0.63721 -0.93555,-1.32959 -1.47559,-2.18262 0,0 -5.81445,-9.18457 -5.81445,-9.18457 0,0 -1.47168,0.93164 -1.47168,0.93164 0,0 2.88086,4.55078 2.88086,4.55078 z" /><path
       inkscape:connector-curvature="0"
       id="path130"
       style="fill:#231f20;fill-opacity:1;fill-rule:nonzero;stroke:none"
       d="m 309.26211,338.05781 c -0.5293,-0.83642 -0.97852,-1.58301 -1.33106,-2.25049 0,0 -1.30468,0.82618 -1.30468,0.82618 0,0 0.75293,1.37451 0.75293,1.37451 0,0 -0.0332,0.0215 -0.0332,0.0215 -0.78125,-0.41943 -2.1914,-0.72217 -3.62988,0.18897 -1.27148,0.80468 -2.33887,2.48779 -0.54883,5.31494 0,0 2.99707,4.73486 2.99707,4.73486 0,0 1.47168,-0.93213 1.47168,-0.93213 0,0 -2.82715,-4.46679 -2.82715,-4.46679 -0.9746,-1.53907 -1.15722,-2.90039 0.16504,-3.73731 0.98731,-0.62451 2.10743,-0.37305 2.79883,0.12695 0.21094,0.14747 0.42969,0.38379 0.61035,0.66797 0,0 3.13477,4.95215 3.13477,4.95215 0,0 1.47266,-0.93262 1.47266,-0.93262 0,0 -3.72852,-5.88867 -3.72852,-5.88867 z" /><path
       inkscape:connector-curvature="0"
       id="path132"
       style="fill:#231f20;fill-opacity:1;fill-rule:nonzero;stroke:none"
       d="m 323.05898,342.30684 c 0,0 -3.55566,-1.10059 -3.55566,-1.10059 0,0 -1.03711,0.65674 -1.03711,0.65674 0,0 2.98633,1.46045 2.98633,1.46045 0,0 1.60644,-1.0166 1.60644,-1.0166 z m -4.54492,-6.40284 c 0.59864,0.90967 1.12891,2.63623 -0.51074,3.67432 -1.50488,0.95264 -3.00977,-0.0166 -3.77246,-0.96289 0,0 4.2832,-2.71143 4.2832,-2.71143 z m -4.96679,1.66797 c -1.22754,-2.01172 -0.49122,-3.62597 0.98046,-4.5581 1.05469,-0.66748 1.82325,-0.896 2.4961,-1.01758 0,0 -0.38867,-1.20703 -0.38867,-1.20703 -0.667,0.0942 -1.75098,0.38183 -3.03907,1.19726 -2.47558,1.56787 -2.93359,4.17725 -1.39746,6.60303 1.55664,2.45947 4.23047,3.46143 6.58887,1.96826 2.64453,-1.67383 1.85742,-4.4331 0.91504,-5.92187 -0.19043,-0.30127 -0.35547,-0.5249 -0.49512,-0.6709 0,0 -5.66015,3.60693 -5.66015,3.60693 z" /><path
       inkscape:connector-curvature="0"
       id="path134"
       style="fill:#231f20;fill-opacity:1;fill-rule:nonzero;stroke:none"
       d="m 318.82168,328.91328 c 0,0 4.41602,6.97608 4.41602,6.97608 0,0 -1.12012,0.70947 -1.12012,0.70947 0,0 0.70898,1.12109 0.70898,1.12109 0,0 1.1211,-0.70947 1.1211,-0.70947 0,0 0.24316,0.38476 0.24316,0.38476 0.7207,1.1377 1.64551,2.00538 2.74414,2.22364 0.89063,0.18603 1.76465,-0.0625 2.43359,-0.48633 0.53516,-0.33887 0.89649,-0.73145 1.10645,-1.02881 0,0 -0.9043,-1.021 -0.9043,-1.021 -0.1709,0.24903 -0.40234,0.5127 -0.83691,0.78809 -1.23828,0.7832 -2.27149,-0.10889 -3.05566,-1.34668 0,0 -0.2754,-0.43506 -0.2754,-0.43506 0,0 1.95704,-1.23926 1.95704,-1.23926 0,0 -0.70899,-1.1206 -0.70899,-1.1206 0,0 -1.94043,1.22803 -1.94043,1.22803 0,0 -4.41601,-6.97657 -4.41601,-6.97657 0,0 -1.47266,0.93262 -1.47266,0.93262 z" /><path
       inkscape:connector-curvature="0"
       id="path136"
       style="fill:#231f20;fill-opacity:1;fill-rule:nonzero;stroke:none"
       d="m 330.45449,327.33711 c -1.58496,1.05029 -3.58789,1.92041 -4.58398,0.34766 -0.61426,-0.97071 -0.25391,-1.80762 0.48144,-2.27344 1.07129,-0.67822 2.18067,-0.44287 2.84961,0.0947 0.14551,0.11866 0.26758,0.2754 0.36328,0.42627 0,0 0.88965,1.40479 0.88965,1.40479 z m 0.0518,-3.10254 c -0.44531,-0.70215 -0.8457,-1.40967 -1.11133,-2.01465 0,0 -1.32226,0.83692 -1.32226,0.83692 0,0 0.51269,1.10498 0.51269,1.10498 0,0 -0.0508,0.0317 -0.0508,0.0317 -0.83691,-0.36035 -2.08398,-0.36767 -3.23828,0.36329 -1.63965,1.03808 -1.74512,2.72119 -1.00391,3.89257 1.23926,1.95704 3.65625,1.92676 6.77539,-0.0708 0,0 0.10547,0.16748 0.10547,0.16748 0.42383,0.66895 1.0127,2.00684 -0.65429,3.03907 -0.76954,0.48681 -1.69336,0.76709 -2.50586,0.74267 0,0 0.29004,1.19873 0.29004,1.19873 0.93457,-0.005 2.10058,-0.3457 3.12207,-0.99218 2.49218,-1.57764 2.02539,-3.64893 0.99804,-5.27149 0,0 -1.91699,-3.02832 -1.91699,-3.02832 z" /><path
       inkscape:connector-curvature="0"
       id="path138"
       style="fill:#231f20;fill-opacity:1;fill-rule:nonzero;stroke:none"
       d="m 337.5873,317.43184 c -0.50097,0.0596 -1.53417,0.31494 -2.62207,1.00341 -2.44238,1.54639 -2.98339,4.20899 -1.40527,6.70166 1.57813,2.49268 4.43945,3.23584 7.08203,1.5625 0.87012,-0.55029 1.50196,-1.25537 1.7666,-1.72705 0,0 -1.04492,-0.90869 -1.04492,-0.90869 -0.23535,0.40625 -0.66015,0.95654 -1.46289,1.46485 -1.85742,1.17578 -3.73926,0.42236 -4.80957,-1.26758 -1.18555,-1.87354 -0.71191,-3.79053 0.89356,-4.80713 0.83691,-0.5293 1.51562,-0.67822 2.05078,-0.75928 0,0 -0.44825,-1.26269 -0.44825,-1.26269 z" /><path
       inkscape:connector-curvature="0"
       id="path140"
       style="fill:#231f20;fill-opacity:1;fill-rule:nonzero;stroke:none"
       d="m 347.47598,324.83418 c 0,0 -1.22852,-1.94092 -1.22852,-1.94092 0,0 2.10742,-1.33447 2.10742,-1.33447 0,0 -0.70898,-1.12061 -0.70898,-1.12061 0,0 -2.1084,1.33448 -2.1084,1.33448 0,0 -2.76367,-4.36621 -2.76367,-4.36621 -0.63574,-1.00391 -0.71094,-1.75293 0.1084,-2.27198 0.40136,-0.25439 0.65722,-0.36914 0.91699,-0.43994 0,0 -0.64258,-1.16308 -0.64258,-1.16308 -0.34766,0.0796 -0.86328,0.26513 -1.43262,0.62548 -0.68554,0.43409 -1.08886,1.01758 -1.19726,1.625 -0.11621,0.70606 0.17285,1.53077 0.77637,2.48438 0,0 2.79589,4.4165 2.79589,4.4165 0,0 -1.25488,0.79492 -1.25488,0.79492 0,0 0.70996,1.12061 0.70996,1.12061 0,0 1.25488,-0.79443 1.25488,-0.79443 0,0 0.94239,1.48877 0.94239,1.48877 0,0 1.72461,-0.4585 1.72461,-0.4585 z" /><path
       inkscape:connector-curvature="0"
       id="path142"
       style="fill:#231f20;fill-opacity:1;fill-rule:nonzero;stroke:none"
       d="m 351.65664,321.55439 c -0.55176,0.34961 -0.64453,1.01758 -0.31641,1.53614 0.32911,0.51855 0.97754,0.69336 1.54688,0.33349 0.56934,-0.36035 0.67187,-1.01172 0.34375,-1.53027 -0.32813,-0.51855 -0.97168,-0.7207 -1.55762,-0.34961 0,0 -0.0166,0.0102 -0.0166,0.0102 z m -6.77148,-9.14111 c 0,0 5.12597,8.09717 5.12597,8.09717 0,0 1.47266,-0.93164 1.47266,-0.93164 0,0 -5.12598,-8.09717 -5.12598,-8.09717 0,0 -1.47265,0.93164 -1.47265,0.93164 z" /><path
       inkscape:connector-curvature="0"
       id="path144"
       style="fill:#231f20;fill-opacity:1;fill-rule:nonzero;stroke:none"
       d="m 352.72793,308.7375 c 1.40527,-0.88965 3.29687,-0.23535 4.46191,1.60498 0.86817,1.37158 1.27246,3.5293 -0.46679,4.63037 -1.72364,1.09131 -3.49317,-0.0386 -4.46778,-1.57764 -1.12207,-1.77343 -0.96582,-3.74658 0.45606,-4.64746 0,0 0.0166,-0.0102 0.0166,-0.0102 z m -0.74902,-1.07227 c -2.17383,1.37647 -2.86426,4.06299 -1.24414,6.62256 1.71582,2.71045 4.51171,3.16602 6.7373,1.75733 2.3252,-1.47217 2.82813,-4.15723 1.27148,-6.6167 -1.90625,-3.01123 -4.82421,-2.9917 -6.74707,-1.77442 0,0 -0.0176,0.0112 -0.0176,0.0112 z" /><path
       inkscape:connector-curvature="0"
       id="path146"
       style="fill:#231f20;fill-opacity:1;fill-rule:nonzero;stroke:none"
       d="m 361.72305,310.02656 c 0.54004,0.85352 0.94726,1.53321 1.32031,2.23389 0,0 1.30469,-0.82568 1.30469,-0.82568 0,0 -0.75293,-1.375 -0.75293,-1.375 0,0 0.0332,-0.021 0.0332,-0.021 0.87891,0.49853 2.29199,0.65869 3.62988,-0.18848 1.1211,-0.70996 2.4375,-2.48095 0.67969,-5.25781 0,0 -3.06055,-4.83496 -3.06055,-4.83496 0,0 -1.47265,0.93213 -1.47265,0.93213 0,0 2.95508,4.66797 2.95508,4.66797 0.82519,1.30468 1.03906,2.71582 -0.34961,3.59521 -0.95215,0.60303 -2.14063,0.39405 -2.92676,-0.25635 -0.18262,-0.1416 -0.38672,-0.38769 -0.53418,-0.62207 0,0 -3.09277,-4.88525 -3.09277,-4.88525 0,0 -1.47168,0.93213 -1.47168,0.93213 0,0 3.73828,5.90527 3.73828,5.90527 z" /><path
       inkscape:connector-curvature="0"
       id="path148"
       style="fill:#231f20;fill-opacity:1;fill-rule:nonzero;stroke:none"
       d="m 269.22451,332.18965 c 0,0 3.44092,13.6167 3.44092,13.6167 0,0 1.58936,-1.00635 1.58936,-1.00635 0,0 -1.75977,-6.66602 -1.75977,-6.66602 -0.49512,-1.81933 -0.95654,-3.47216 -1.46387,-4.97851 0,0 0.0327,-0.021 0.0327,-0.021 1.14453,1.10352 2.49609,2.23975 3.94629,3.38379 0,0 5.43457,4.36328 5.43457,4.36328 0,0 1.55517,-0.98486 1.55517,-0.98486 0,0 -11.16943,-8.72314 -11.16943,-8.72314 0,0 -1.60596,1.01611 -1.60596,1.01611 z" /><path
       inkscape:connector-curvature="0"
       id="path150"
       style="fill:#231f20;fill-opacity:1;fill-rule:nonzero;stroke:none"
       d="m 282.31289,329.69258 c -1.58447,1.0498 -3.58789,1.91992 -4.5835,0.34717 -0.61425,-0.97022 -0.25439,-1.80713 0.48194,-2.27344 1.0708,-0.67774 2.18017,-0.44287 2.84863,0.0947 0.146,0.11865 0.26807,0.27587 0.36328,0.42626 0,0 0.88965,1.40528 0.88965,1.40528 z m 0.0518,-3.10254 c -0.44483,-0.70264 -0.84522,-1.41016 -1.11133,-2.01514 0,0 -1.32178,0.83692 -1.32178,0.83692 0,0 0.51221,1.10498 0.51221,1.10498 0,0 -0.0503,0.0322 -0.0503,0.0322 -0.83741,-0.36084 -2.08448,-0.36767 -3.23877,0.3628 -1.63965,1.03808 -1.74463,2.72168 -1.00293,3.89257 1.23877,1.95752 3.65576,1.92676 6.77441,-0.0708 0,0 0.10596,0.16748 0.10596,0.16748 0.42334,0.66944 1.01269,2.00684 -0.65479,3.03907 -0.76904,0.48681 -1.69336,0.76709 -2.50586,0.74267 0,0 0.29053,1.19873 0.29053,1.19873 0.93408,-0.005 2.10059,-0.3457 3.12158,-0.9917 2.49268,-1.57812 2.02539,-3.64892 0.99805,-5.27197 0,0 -1.91699,-3.02783 -1.91699,-3.02783 z" /><path
       inkscape:connector-curvature="0"
       id="path152"
       style="fill:#231f20;fill-opacity:1;fill-rule:nonzero;stroke:none"
       d="m 287.05264,325.52021 c -0.12696,-0.20068 -0.24707,-0.42919 -0.31446,-0.64453 -0.39404,-1.17968 0.0635,-2.4541 1.10157,-3.11084 1.55566,-0.98486 3.26367,-0.28515 4.43945,1.57178 1.02685,1.62256 1.06982,3.54102 -0.48584,4.52539 -1.00391,0.63574 -2.40283,0.53711 -3.38574,-0.38769 -0.16065,-0.1792 -0.34864,-0.36475 -0.46533,-0.54883 0,0 -0.88965,-1.40528 -0.88965,-1.40528 z m -0.10547,3.08985 c 0.65625,1.0376 1.16943,1.88428 1.60644,2.68555 0,0 1.32178,-0.83643 1.32178,-0.83643 0,0 -0.7959,-1.44141 -0.7959,-1.44141 0,0 0.0342,-0.0215 0.0342,-0.0215 1.22022,0.6333 2.55078,0.58789 3.85645,-0.23828 1.97363,-1.24951 2.39648,-3.83789 0.83984,-6.29688 -1.84277,-2.91113 -4.54297,-3.21679 -6.43359,-2.02002 -1.08741,0.68848 -1.71094,1.73926 -1.6875,2.84961 0,0 -0.0342,0.0215 -0.0342,0.0215 0,0 -2.78516,-4.39991 -2.78516,-4.39991 0,0 -1.47217,0.93165 -1.47217,0.93165 0,0 5.54981,8.76611 5.54981,8.76611 z" /><path
       inkscape:connector-curvature="0"
       id="path154"
       style="fill:#231f20;fill-opacity:1;fill-rule:nonzero;stroke:none"
       d="m 296.9584,315.92158 c 1.40527,-0.88965 3.29687,-0.23535 4.46191,1.60498 0.86817,1.37158 1.27246,3.52979 -0.46679,4.63086 -1.72364,1.09082 -3.49317,-0.0386 -4.4668,-1.57763 -1.12305,-1.77344 -0.9668,-3.74708 0.45508,-4.64747 0,0 0.0166,-0.0107 0.0166,-0.0107 z m -0.74902,-1.07226 c -2.17383,1.37646 -2.86426,4.06347 -1.24415,6.62304 1.71582,2.70996 4.51172,3.16602 6.73731,1.75684 2.32519,-1.47168 2.82812,-4.15723 1.27148,-6.61621 -1.90625,-3.01123 -4.82422,-2.99219 -6.74707,-1.77442 0,0 -0.0176,0.0108 -0.0176,0.0108 z" /><path
       inkscape:connector-curvature="0"
       id="path156"
       style="fill:#231f20;fill-opacity:1;fill-rule:nonzero;stroke:none"
       d="m 305.7582,316.86592 c 0.60352,0.95361 1.10547,1.78369 1.53223,2.56836 0,0 1.28809,-0.81543 1.28809,-0.81543 0,0 -0.93848,-1.63184 -0.93848,-1.63184 0,0 0.0498,-0.0312 0.0498,-0.0312 1.05567,0.85401 2.39356,0.96826 3.38086,0.34278 0.15039,-0.0947 0.25684,-0.18604 0.37012,-0.30372 0,0 -0.86914,-1.37207 -0.86914,-1.37207 -0.15625,0.12305 -0.2959,0.23487 -0.49707,0.36182 -1.03711,0.65625 -2.27148,0.33643 -3.16016,-0.62402 -0.1709,-0.19678 -0.33593,-0.41992 -0.49511,-0.6709 0,0 -2.73243,-4.31592 -2.73243,-4.31592 0,0 -1.47168,0.93164 -1.47168,0.93164 0,0 3.54297,5.56055 3.54297,5.56055 z" /><path
       inkscape:connector-curvature="0"
       id="path158"
       style="fill:#231f20;fill-opacity:1;fill-rule:nonzero;stroke:none"
       d="m 314.52285,316.9416 c -0.55176,0.34912 -0.64453,1.01758 -0.3164,1.53613 0.32812,0.51856 0.97753,0.69336 1.54589,0.3335 0.56934,-0.36035 0.67286,-1.01172 0.34473,-1.53027 -0.32812,-0.51856 -0.97168,-0.72071 -1.55762,-0.3501 0,0 -0.0166,0.0107 -0.0166,0.0107 z m -6.77148,-9.14111 c 0,0 5.12597,8.09717 5.12597,8.09717 0,0 1.47168,-0.93213 1.47168,-0.93213 0,0 -5.12597,-8.09717 -5.12597,-8.09717 0,0 -1.47168,0.93213 -1.47168,0.93213 z" /><path
       inkscape:connector-curvature="0"
       id="path160"
       style="fill:#231f20;fill-opacity:1;fill-rule:nonzero;stroke:none"
       d="m 312.40859,306.9377 c 0.28223,-0.55323 0.86133,-1.3418 1.59766,-1.80762 1.05273,-0.66699 1.88379,-0.4668 2.31836,0.21924 0.44434,0.70263 0.26953,1.35254 -0.54688,2.43164 -1.13281,1.46728 -1.32128,2.68799 -0.70703,3.6582 0.82618,1.30469 2.57422,1.69775 4.29785,0.60693 0.81934,-0.51904 1.40137,-1.19189 1.65625,-1.75146 0,0 -1.01855,-0.83154 -1.01855,-0.83154 -0.20117,0.38525 -0.60742,1.04052 -1.35937,1.51709 -0.87012,0.55029 -1.65625,0.34521 -2.03809,-0.25733 -0.43359,-0.68555 -0.15625,-1.28369 0.64355,-2.35205 1.06055,-1.39795 1.35157,-2.56641 0.57813,-3.7876 -0.91016,-1.43896 -2.66602,-1.7334 -4.55762,-0.53613 -0.88574,0.56104 -1.55762,1.31445 -1.91504,2.00879 0,0 1.05078,0.88184 1.05078,0.88184 z" /><path
       inkscape:connector-curvature="0"
       id="path162"
       style="fill:#231f20;fill-opacity:1;fill-rule:nonzero;stroke:none"
       d="m 325.17324,302.55977 c -1.58496,1.0498 -3.58789,1.91992 -4.58398,0.34716 -0.61426,-0.97021 -0.25391,-1.80713 0.48242,-2.27343 1.07031,-0.67774 2.17969,-0.44287 2.84863,0.0947 0.14551,0.11866 0.26758,0.27588 0.36328,0.42627 0,0 0.88965,1.40528 0.88965,1.40528 z m 0.0518,-3.10254 c -0.44531,-0.70264 -0.8457,-1.41016 -1.11133,-2.01514 0,0 -1.32226,0.83691 -1.32226,0.83691 0,0 0.51269,1.10498 0.51269,1.10498 0,0 -0.0508,0.0322 -0.0508,0.0322 -0.83691,-0.36084 -2.08398,-0.36767 -3.23828,0.36279 -1.63965,1.03809 -1.74512,2.72168 -1.00293,3.89258 1.23828,1.95752 3.65625,1.92676 6.77441,-0.0703 0,0 0.10547,0.16699 0.10547,0.16699 0.42383,0.66944 1.0127,2.00733 -0.65429,3.03906 -0.76954,0.48682 -1.69336,0.76709 -2.50586,0.74317 0,0 0.29004,1.19824 0.29004,1.19824 0.93457,-0.005 2.10156,-0.3457 3.12207,-0.9917 2.49218,-1.57812 2.02539,-3.64892 0.99804,-5.27197 0,0 -1.91699,-3.02783 -1.91699,-3.02783 z" /><path
       inkscape:connector-curvature="0"
       id="path164"
       style="fill:#231f20;fill-opacity:1;fill-rule:nonzero;stroke:none"
       d="m 334.41543,304.98115 c 0,0 -1.22852,-1.94043 -1.22852,-1.94043 0,0 2.1084,-1.33496 2.1084,-1.33496 0,0 -0.70996,-1.1206 -0.70996,-1.1206 0,0 -2.1084,1.33447 -2.1084,1.33447 0,0 -2.76367,-4.36621 -2.76367,-4.36621 -0.63574,-1.00391 -0.71094,-1.75293 0.1084,-2.27149 0.40137,-0.25439 0.65723,-0.36963 0.91699,-0.44043 0,0 -0.64258,-1.16308 -0.64258,-1.16308 -0.34765,0.0796 -0.86328,0.26513 -1.43261,0.62549 -0.68555,0.43408 -1.08887,1.01757 -1.19727,1.625 -0.11523,0.70605 0.17285,1.53125 0.77734,2.48486 0,0 2.7959,4.4165 2.7959,4.4165 0,0 -1.25586,0.79444 -1.25586,0.79444 0,0 0.70996,1.1206 0.70996,1.1206 0,0 1.25489,-0.79443 1.25489,-0.79443 0,0 0.94238,1.48926 0.94238,1.48926 0,0 1.72461,-0.45899 1.72461,-0.45899 z" /><path
       inkscape:connector-curvature="0"
       id="path166"
       style="fill:#231f20;fill-opacity:1;fill-rule:nonzero;stroke:none"
       d="m 338.59707,301.70137 c -0.55273,0.34961 -0.64551,1.01758 -0.31641,1.53613 0.32813,0.51855 0.97754,0.69336 1.5459,0.3335 0.56934,-0.36036 0.67285,-1.01172 0.34375,-1.53028 -0.32812,-0.51855 -0.97168,-0.7207 -1.55761,-0.34961 0,0 -0.0156,0.0103 -0.0156,0.0103 z m -6.77148,-9.14112 c 0,0 5.125,8.09717 5.125,8.09717 0,0 1.47265,-0.93164 1.47265,-0.93164 0,0 -5.12597,-8.09717 -5.12597,-8.09717 0,0 -1.47168,0.93164 -1.47168,0.93164 z" /><path
       inkscape:connector-curvature="0"
       id="path168"
       style="fill:#231f20;fill-opacity:1;fill-rule:nonzero;stroke:none"
       d="m 339.66836,288.88447 c 1.4043,-0.88965 3.2959,-0.23535 4.46094,1.60498 0.86816,1.37159 1.27246,3.5293 -0.4668,4.63037 -1.72363,1.09131 -3.49316,-0.0381 -4.4668,-1.57714 -1.12304,-1.77344 -0.96679,-3.74707 0.45606,-4.64747 0,0 0.0166,-0.0107 0.0166,-0.0107 z m -0.75,-1.07226 c -2.17383,1.37646 -2.86426,4.06299 -1.24414,6.62256 1.71582,2.71044 4.51269,3.16601 6.7373,1.75732 2.3252,-1.47168 2.82911,-4.15723 1.27149,-6.61621 -1.90625,-3.01123 -4.82422,-2.99219 -6.74707,-1.77442 0,0 -0.0176,0.0107 -0.0176,0.0107 z" /><path
       inkscape:connector-curvature="0"
       id="path170"
       style="fill:#231f20;fill-opacity:1;fill-rule:nonzero;stroke:none"
       d="m 348.6625,290.17402 c 0.54004,0.85303 0.94727,1.53272 1.32031,2.23389 0,0 1.30469,-0.82617 1.30469,-0.82617 0,0 -0.75293,-1.375 -0.75293,-1.375 0,0 0.0332,-0.0205 0.0332,-0.0205 0.87891,0.49854 2.292,0.6582 3.62989,-0.18896 1.12207,-0.70997 2.43847,-2.48096 0.67968,-5.25782 0,0 -3.06054,-4.83496 -3.06054,-4.83496 0,0 -1.47266,0.93262 -1.47266,0.93262 0,0 2.95508,4.66748 2.95508,4.66748 0.82617,1.30469 1.04004,2.71631 -0.34863,3.59521 -0.95313,0.60352 -2.14063,0.39454 -2.92676,-0.25634 -0.1836,-0.1416 -0.38672,-0.3877 -0.53516,-0.62207 0,0 -3.09277,-4.88526 -3.09277,-4.88526 0,0 -1.47168,0.93213 -1.47168,0.93213 0,0 3.73828,5.90576 3.73828,5.90576 z" /><path
       inkscape:connector-curvature="0"
       id="path218"
       style="fill:#231f20;fill-opacity:1;fill-rule:nonzero;stroke:none"
       d="m 115.34268,171.17598 c 0.49462,0.77246 0.87109,1.88086 0.87109,3.06933 0,1.76172 -0.91064,2.79102 -2.27686,2.79102 -1.22802,0 -1.96045,-0.71192 -2.63378,-2.51465 -0.792,-2.17773 -1.94043,-3.52441 -3.80176,-3.52441 -2.07862,0 -3.62305,1.72265 -3.62305,4.3164 0,1.34668 0.31641,2.35645 0.65332,2.93067 0,0 1.40576,-0.47461 1.40576,-0.47461 -0.25732,-0.41602 -0.63379,-1.30762 -0.63379,-2.51465 0,-1.82227 1.08936,-2.51465 2,-2.51465 1.24756,0 1.86133,0.81152 2.57422,2.65332 0.89063,2.25684 1.95996,3.38574 3.92041,3.38574 2.05908,0 3.86084,-1.50488 3.86084,-4.65332 0,-1.28711 -0.39599,-2.69336 -0.87109,-3.40527 0,0 -1.44531,0.45508 -1.44531,0.45508 z" /><path
       inkscape:connector-curvature="0"
       id="path220"
       style="fill:#231f20;fill-opacity:1;fill-rule:nonzero;stroke:none"
       d="m 114.82754,189.11543 c 0.99023,0 1.86133,0.0195 2.61377,0.0791 0,0 0,-1.54492 0,-1.54492 0,0 -1.56445,-0.0986 -1.56445,-0.0986 0,0 0,-0.04 0,-0.04 0.77246,-0.43555 1.78222,-1.46485 1.78222,-3.16797 0,-1.50488 -0.85156,-3.30664 -4.19775,-3.30664 0,0 -5.60352,0 -5.60352,0 0,0 0,1.74316 0,1.74316 0,0 5.28662,0 5.28662,0 1.82178,0 3.06934,0.57324 3.06934,2.1377 0,1.16894 -0.81201,1.98047 -1.604,2.29687 -0.23731,0.0996 -0.5542,0.15821 -0.89112,0.15821 0,0 -5.86084,0 -5.86084,0 0,0 0,1.74316 0,1.74316 0,0 6.96973,0 6.96973,0 z" /><path
       inkscape:connector-curvature="0"
       id="path222"
       style="fill:#231f20;fill-opacity:1;fill-rule:nonzero;stroke:none"
       d="m 113.6,193.74727 c 0.21777,0 0.43555,0.0205 0.63379,0.0596 1.20752,0.33691 2.03906,1.36621 2.03906,2.61425 0,1.84082 -1.48486,2.91016 -3.68262,2.91016 -1.94043,0 -3.58398,-0.99023 -3.58398,-2.85156 0,-1.1875 0.83203,-2.29688 2.13867,-2.63281 0.21778,-0.0596 0.45508,-0.0996 0.73242,-0.0996 0,0 1.72266,0 1.72266,0 z m -10.2168,-1.74219 c 0,0 0,1.74219 0,1.74219 0,0 5.99951,0 5.99951,0 0,0 0,0.04 0,0.04 -1.06933,0.61329 -1.74267,1.72266 -1.74267,3.26661 0,2.37597 1.97998,4.04004 4.87109,4.04004 3.44532,0 5.14795,-2.17872 5.14795,-4.31739 0,-1.38574 -0.53467,-2.47461 -1.80176,-3.20703 0,0 0,-0.04 0,-0.04 0,0 1.58399,-0.0986 1.58399,-0.0986 0,0 0,-1.50488 0,-1.50488 -0.65332,0.0596 -1.62354,0.0791 -2.4751,0.0791 0,0 -11.58301,0 -11.58301,0 z" /><path
       inkscape:connector-curvature="0"
       id="path224"
       style="fill:#231f20;fill-opacity:1;fill-rule:nonzero;stroke:none"
       d="m 103.3832,203.2707 c 0,0 0,1.74219 0,1.74219 0,0 14.05811,0 14.05811,0 0,0 0,-1.74219 0,-1.74219 0,0 -14.05811,0 -14.05811,0 z" /><path
       inkscape:connector-curvature="0"
       id="path226"
       style="fill:#231f20;fill-opacity:1;fill-rule:nonzero;stroke:none"
       d="m 117.44131,207.90449 c 0,0 -9.5835,0 -9.5835,0 0,0 0,1.74219 0,1.74219 0,0 9.5835,0 9.5835,0 0,0 0,-1.74219 0,-1.74219 z m -11.3457,0.83203 c 0,-0.65332 -0.51465,-1.08886 -1.12842,-1.08886 -0.61377,0 -1.10889,0.45507 -1.10889,1.12793 0,0.67382 0.49512,1.10937 1.10889,1.10937 0.61377,0 1.12842,-0.43555 1.12842,-1.12891 0,0 0,-0.0195 0,-0.0195 z" /><path
       inkscape:connector-curvature="0"
       id="path228"
       style="fill:#231f20;fill-opacity:1;fill-rule:nonzero;stroke:none"
       d="m 110.45205,212.5373 c -1.01025,0 -1.80225,-0.0391 -2.59424,-0.0791 0,0 0,1.52442 0,1.52442 0,0 1.54444,0.0791 1.54444,0.0791 0,0 0,0.0596 0,0.0596 -0.91065,0.53516 -1.76221,1.42578 -1.76221,3.0293 0,1.28711 0.79199,2.27734 1.9209,2.69336 0,0 0,0.0391 0,0.0391 -0.55469,0.29687 -0.95069,0.69336 -1.24756,1.08887 -0.43555,0.57421 -0.67334,1.18847 -0.67334,2.0996 0,1.28614 0.83154,3.16797 4.1582,3.16797 0,0 5.64307,0 5.64307,0 0,0 0,-1.70312 0,-1.70312 0,0 -5.42529,0 -5.42529,0 -1.86133,0 -2.9502,-0.69336 -2.9502,-2.0791 0,-1.00977 0.73242,-1.76172 1.56445,-2.0791 0.25733,-0.0791 0.57422,-0.13868 0.8711,-0.13868 0,0 5.93994,0 5.93994,0 0,0 0,-1.70215 0,-1.70215 0,0 -5.74219,0 -5.74219,0 -1.54443,0 -2.6333,-0.67382 -2.6333,-2 0,-1.06933 0.87109,-1.88085 1.74219,-2.1582 0.25781,-0.0996 0.55469,-0.13867 0.85156,-0.13867 0,0 5.78174,0 5.78174,0 0,0 0,-1.70313 0,-1.70313 0,0 -6.98926,0 -6.98926,0 z" /><path
       inkscape:connector-curvature="0"
       id="path230"
       style="fill:#231f20;fill-opacity:1;fill-rule:nonzero;stroke:none"
       d="m 112.55068,234.09883 c -0.0396,-1.90039 0.29688,-4.0586 2.15821,-4.0586 1.14843,0 1.66308,0.75196 1.66308,1.62305 0,1.26758 -0.79199,2.0791 -1.60351,2.35645 -0.17823,0.0596 -0.37647,0.0791 -0.55469,0.0791 0,0 -1.66309,0 -1.66309,0 z m 2.59375,1.70312 c 0.83155,0 1.64356,0.04 2.29688,0.13868 0,0 0,-1.56446 0,-1.56446 0,0 -1.20801,-0.1582 -1.20801,-0.1582 0,0 0,-0.0596 0,-0.0596 0.75244,-0.51465 1.42578,-1.56445 1.42578,-2.93067 0,-1.94043 -1.36621,-2.92968 -2.75244,-2.92968 -2.31641,0 -3.5835,2.05859 -3.56396,5.76172 0,0 -0.19776,0 -0.19776,0 -0.79199,0 -2.2373,-0.21778 -2.21777,-2.17872 0,-0.91015 0.25732,-1.84082 0.71289,-2.51367 0,0 -1.16846,-0.39648 -1.16846,-0.39648 -0.49463,0.79199 -0.83154,1.95996 -0.83154,3.16797 0,2.95019 2,3.66308 3.92041,3.66308 0,0 3.58398,0 3.58398,0 z" /><path
       inkscape:connector-curvature="0"
       id="path232"
       style="fill:#231f20;fill-opacity:1;fill-rule:nonzero;stroke:none"
       d="m 105.56143,240.61348 c 0,0 2.29638,0 2.29638,0 0,0 0,2.49511 0,2.49511 0,0 1.32666,0 1.32666,0 0,0 0,-2.49511 0,-2.49511 0,0 5.16797,0 5.16797,0 1.18799,0 1.86133,0.33691 1.86133,1.30664 0,0.47558 -0.0396,0.75293 -0.11865,1.01074 0,0 1.32617,0.0791 1.32617,0.0791 0.11914,-0.33691 0.23779,-0.87109 0.23779,-1.54492 0,-0.81152 -0.27734,-1.46484 -0.73242,-1.88086 -0.53467,-0.47559 -1.38623,-0.67285 -2.51465,-0.67285 0,0 -5.22754,0 -5.22754,0 0,0 0,-1.48535 0,-1.48535 0,0 -1.32666,0 -1.32666,0 0,0 0,1.48535 0,1.48535 0,0 -1.7622,0 -1.7622,0 0,0 -0.53418,1.70215 -0.53418,1.70215 z" /><path
       inkscape:connector-curvature="0"
       id="path234"
       style="fill:#231f20;fill-opacity:1;fill-rule:nonzero;stroke:none"
       d="m 117.44131,245.06855 c 0,0 -9.5835,0 -9.5835,0 0,0 0,1.74219 0,1.74219 0,0 9.5835,0 9.5835,0 0,0 0,-1.74219 0,-1.74219 z m -11.3457,0.83204 c 0,-0.65332 -0.51465,-1.08887 -1.12842,-1.08887 -0.61377,0 -1.10889,0.45508 -1.10889,1.12793 0,0.67383 0.49512,1.10937 1.10889,1.10937 0.61377,0 1.12842,-0.43554 1.12842,-1.1289 0,0 0,-0.0195 0,-0.0195 z" /><path
       inkscape:connector-curvature="0"
       id="path236"
       style="fill:#231f20;fill-opacity:1;fill-rule:nonzero;stroke:none"
       d="m 116.35244,253.66133 c 0,1.66308 -1.56445,2.91113 -3.74219,2.91113 -1.62402,0 -3.66308,-0.8125 -3.66308,-2.87109 0,-2.04004 1.90088,-2.93067 3.72217,-2.93067 2.09912,0 3.6831,1.1875 3.6831,2.8711 0,0 0,0.0195 0,0.0195 z m 1.30664,-0.0596 c 0,-2.57324 -1.90088,-4.59375 -4.93017,-4.59375 -3.20752,0 -5.08887,2.11914 -5.08887,4.75293 0,2.75195 2,4.61328 4.91064,4.61328 3.56397,0 5.1084,-2.47559 5.1084,-4.75195 0,0 0,-0.0205 0,-0.0205 z" /><path
       inkscape:connector-curvature="0"
       id="path238"
       style="fill:#231f20;fill-opacity:1;fill-rule:nonzero;stroke:none"
       d="m 110.45205,260.57148 c -1.01025,0 -1.80225,-0.0195 -2.59424,-0.0791 0,0 0,1.54395 0,1.54395 0,0 1.56446,0.0996 1.56446,0.0996 0,0 0,0.0391 0,0.0391 -0.89112,0.47559 -1.78223,1.58398 -1.78223,3.16797 0,1.32715 0.79199,3.38623 4.0791,3.38623 0,0 5.72217,0 5.72217,0 0,0 0,-1.74219 0,-1.74219 0,0 -5.52442,0 -5.52442,0 -1.54443,0 -2.85107,-0.57422 -2.85107,-2.21826 0,-1.12793 0.81201,-2.01953 1.78223,-2.33594 0.21777,-0.0791 0.53418,-0.11914 0.81152,-0.11914 0,0 5.78174,0 5.78174,0 0,0 0,-1.74219 0,-1.74219 0,0 -6.98926,0 -6.98926,0 z" /><path
       inkscape:connector-curvature="0"
       id="path240"
       style="fill:#231f20;fill-opacity:1;fill-rule:nonzero;stroke:none"
       d="m 140.78506,172.92793 c 0.31689,-0.61328 0.63379,-1.90039 0.63379,-3.52441 0,-3.76172 -2.37598,-6.57325 -6.77149,-6.57325 -4.19775,0 -7.00927,2.83106 -7.00927,6.96973 0,1.64355 0.35644,2.71289 0.59375,3.16797 0,0 1.40576,-0.43555 1.40576,-0.43555 -0.31641,-0.63379 -0.5542,-1.56445 -0.5542,-2.67285 0,-3.12891 2,-5.20801 5.50439,-5.20801 3.28662,0 5.36573,1.88086 5.36573,5.1084 0,1.06934 -0.21778,2.13867 -0.5542,2.83203 0,0 1.38574,0.33594 1.38574,0.33594 z" /><path
       inkscape:connector-curvature="0"
       id="path242"
       style="fill:#231f20;fill-opacity:1;fill-rule:nonzero;stroke:none"
       d="m 140.11221,178.74922 c 0,1.66308 -1.56446,2.91113 -3.74219,2.91113 -1.62402,0 -3.66309,-0.8125 -3.66309,-2.87109 0,-2.04004 1.90088,-2.93067 3.72217,-2.93067 2.09912,0 3.68311,1.1875 3.68311,2.8711 0,0 0,0.0195 0,0.0195 z m 1.30664,-0.0596 c 0,-2.57324 -1.90088,-4.59375 -4.93018,-4.59375 -3.20752,0 -5.08887,2.11914 -5.08887,4.75293 0,2.75195 2,4.61328 4.91065,4.61328 3.56396,0 5.1084,-2.47559 5.1084,-4.75195 0,0 0,-0.0205 0,-0.0205 z" /><path
       inkscape:connector-curvature="0"
       id="path244"
       style="fill:#231f20;fill-opacity:1;fill-rule:nonzero;stroke:none"
       d="m 134.21182,185.65938 c -1.01026,0 -1.80225,-0.0195 -2.59424,-0.0791 0,0 0,1.54395 0,1.54395 0,0 1.56445,0.0996 1.56445,0.0996 0,0 0,0.0391 0,0.0391 -0.89111,0.47559 -1.78223,1.58399 -1.78223,3.16797 0,1.32715 0.792,3.38672 4.07911,3.38672 0,0 5.72216,0 5.72216,0 0,0 0,-1.74317 0,-1.74317 0,0 -5.52441,0 -5.52441,0 -1.54443,0 -2.85107,-0.57421 -2.85107,-2.21777 0,-1.12793 0.81201,-2.01953 1.78222,-2.33594 0.21778,-0.0791 0.53418,-0.11914 0.81153,-0.11914 0,0 5.78173,0 5.78173,0 0,0 0,-1.74218 0,-1.74218 0,0 -6.98925,0 -6.98925,0 z" /><path
       inkscape:connector-curvature="0"
       id="path246"
       style="fill:#231f20;fill-opacity:1;fill-rule:nonzero;stroke:none"
       d="m 135.51846,203.18281 c -0.2378,0 -0.51465,-0.0195 -0.75244,-0.0791 -1.08887,-0.25781 -2,-1.20801 -2,-2.51465 0,-1.80176 1.58398,-2.87109 3.6831,-2.87109 1.95996,0 3.56397,0.96973 3.56397,2.83105 0,1.16895 -0.792,2.23731 -2.07911,2.55469 -0.2373,0.0596 -0.47509,0.0791 -0.75244,0.0791 0,0 -1.66308,0 -1.66308,0 z m -8.37549,1.74219 c 0,0 11.58301,0 11.58301,0 0.85156,0 1.82177,0.0195 2.47509,0.0791 0,0 0,-1.56347 0,-1.56347 0,0 -1.66308,-0.0801 -1.66308,-0.0801 0,0 0,-0.0391 0,-0.0391 1.06885,-0.53515 1.88086,-1.68261 1.88086,-3.24707 0,-2.3164 -1.95996,-4.11914 -4.87061,-4.11914 -3.20801,-0.0195 -5.14844,1.98047 -5.14844,4.29688 0,1.48535 0.69336,2.47558 1.44581,2.89062 0,0 0,0.04 0,0.04 0,0 -5.70264,0 -5.70264,0 0,0 0,1.74219 0,1.74219 z" /><path
       inkscape:connector-curvature="0"
       id="path248"
       style="fill:#231f20;fill-opacity:1;fill-rule:nonzero;stroke:none"
       d="m 135.45889,213.89473 c -1.08887,0.0195 -2.83155,-0.45606 -2.83155,-2.39649 0,-1.78125 1.62403,-2.53418 2.83155,-2.67285 0,0 0,5.06934 0,5.06934 z m 1.24756,-5.08887 c 2.35644,0.0391 3.32617,1.52441 3.32617,3.2666 0,1.24805 -0.21778,2.01953 -0.4751,2.65332 0,0 1.22754,0.31738 1.22754,0.31738 0.27734,-0.61425 0.61377,-1.68359 0.61377,-3.208 0,-2.93067 -1.95996,-4.71289 -4.83106,-4.71289 -2.91064,0 -5.1875,1.72265 -5.1875,4.51464 0,3.12891 2.75196,3.94043 4.51416,3.94043 0.35645,0 0.63379,-0.0195 0.83155,-0.0596 0,0 -0.0195,-6.71191 -0.0195,-6.71191 z" /><path
       inkscape:connector-curvature="0"
       id="path250"
       style="fill:#231f20;fill-opacity:1;fill-rule:nonzero;stroke:none"
       d="m 134.21182,217.73457 c -1.01026,0 -1.80225,-0.0195 -2.59424,-0.0791 0,0 0,1.54394 0,1.54394 0,0 1.56445,0.0996 1.56445,0.0996 0,0 0,0.0391 0,0.0391 -0.89111,0.47558 -1.78223,1.58398 -1.78223,3.16796 0,1.32715 0.792,3.38672 4.07911,3.38672 0,0 5.72216,0 5.72216,0 0,0 0,-1.74316 0,-1.74316 0,0 -5.52441,0 -5.52441,0 -1.54443,0 -2.85107,-0.57422 -2.85107,-2.21777 0,-1.12793 0.81201,-2.01954 1.78222,-2.33594 0.21778,-0.0791 0.53418,-0.11914 0.81153,-0.11914 0,0 5.78173,0 5.78173,0 0,0 0,-1.74219 0,-1.74219 0,0 -6.98925,0 -6.98925,0 z" /><path
       inkscape:connector-curvature="0"
       id="path252"
       style="fill:#231f20;fill-opacity:1;fill-rule:nonzero;stroke:none"
       d="m 139.43887,228.48652 c 0.31689,0.53418 0.67334,1.44532 0.67334,2.31641 0,1.24707 -0.61377,1.8418 -1.42578,1.8418 -0.83155,0 -1.28711,-0.49512 -1.76221,-1.7627 -0.63379,-1.74219 -1.56445,-2.55371 -2.7124,-2.55371 -1.54444,0 -2.81202,1.2666 -2.81202,3.30664 0,0.96973 0.25782,1.82129 0.59424,2.33594 0,0 1.24756,-0.41602 1.24756,-0.41602 -0.21777,-0.37597 -0.55469,-1.06933 -0.55469,-1.95996 0,-1.02929 0.59424,-1.58398 1.30664,-1.58398 0.81202,0 1.16846,0.55469 1.64356,1.80176 0.61377,1.64355 1.44531,2.51464 2.89111,2.51464 1.70264,0 2.89063,-1.32617 2.89063,-3.56445 0,-1.04883 -0.27735,-2.01953 -0.67334,-2.69238 0,0 -1.30664,0.41601 -1.30664,0.41601 z" /><path
       inkscape:connector-curvature="0"
       id="path254"
       style="fill:#231f20;fill-opacity:1;fill-rule:nonzero;stroke:none"
       d="m 136.31045,241.61348 c -0.0396,-1.90039 0.29687,-4.0586 2.1582,-4.0586 1.14844,0 1.66309,0.75196 1.66309,1.62305 0,1.26758 -0.79199,2.0791 -1.60352,2.35645 -0.17822,0.0596 -0.37646,0.0791 -0.55468,0.0791 0,0 -1.66309,0 -1.66309,0 z m 2.59375,1.70312 c 0.83154,0 1.64355,0.04 2.29687,0.13867 0,0 0,-1.56445 0,-1.56445 0,0 -1.208,-0.1582 -1.208,-0.1582 0,0 0,-0.0596 0,-0.0596 0.75244,-0.51465 1.42578,-1.56446 1.42578,-2.93067 0,-1.94043 -1.36621,-2.92968 -2.75244,-2.92968 -2.31641,0 -3.5835,2.05859 -3.56397,5.76171 0,0 -0.19775,0 -0.19775,0 -0.79199,0 -2.23731,-0.21777 -2.21778,-2.17871 0,-0.91015 0.25733,-1.84082 0.71289,-2.51465 0,0 -1.16845,-0.3955 -1.16845,-0.3955 -0.49463,0.79199 -0.83155,1.95996 -0.83155,3.16797 0,2.95019 2,3.66308 3.92041,3.66308 0,0 3.58399,0 3.58399,0 z" /><path
       inkscape:connector-curvature="0"
       id="path256"
       style="fill:#231f20;fill-opacity:1;fill-rule:nonzero;stroke:none"
       d="m 129.32119,248.12715 c 0,0 2.29639,0 2.29639,0 0,0 0,2.49512 0,2.49512 0,0 1.32666,0 1.32666,0 0,0 0,-2.49512 0,-2.49512 0,0 5.16797,0 5.16797,0 1.18799,0 1.86133,0.33691 1.86133,1.30664 0,0.47559 -0.0396,0.75293 -0.11866,1.01074 0,0 1.32617,0.0791 1.32617,0.0791 0.11915,-0.33691 0.2378,-0.87109 0.2378,-1.54492 0,-0.81152 -0.27735,-1.46484 -0.73242,-1.88086 -0.53467,-0.47558 -1.38623,-0.67285 -2.51465,-0.67285 0,0 -5.22754,0 -5.22754,0 0,0 0,-1.48535 0,-1.48535 0,0 -1.32666,0 -1.32666,0 0,0 0,1.48535 0,1.48535 0,0 -1.76221,0 -1.76221,0 0,0 -0.53418,1.70215 -0.53418,1.70215 z" /><path
       inkscape:connector-curvature="0"
       id="path258"
       style="fill:#231f20;fill-opacity:1;fill-rule:nonzero;stroke:none"
       d="m 141.20107,252.58223 c 0,0 -9.58349,0 -9.58349,0 0,0 0,1.74218 0,1.74218 0,0 9.58349,0 9.58349,0 0,0 0,-1.74218 0,-1.74218 z m -11.3457,0.83203 c 0,-0.65332 -0.51465,-1.08887 -1.12842,-1.08887 -0.61377,0 -1.10888,0.45508 -1.10888,1.12793 0,0.67383 0.49511,1.10938 1.10888,1.10938 0.61377,0 1.12842,-0.43555 1.12842,-1.12891 0,0 0,-0.0195 0,-0.0195 z" /><path
       inkscape:connector-curvature="0"
       id="path260"
       style="fill:#231f20;fill-opacity:1;fill-rule:nonzero;stroke:none"
       d="m 140.11221,261.17598 c 0,1.66308 -1.56446,2.91113 -3.74219,2.91113 -1.62402,0 -3.66309,-0.8125 -3.66309,-2.87109 0,-2.04004 1.90088,-2.93067 3.72217,-2.93067 2.09912,0 3.68311,1.1875 3.68311,2.8711 0,0 0,0.0195 0,0.0195 z m 1.30664,-0.0596 c 0,-2.57325 -1.90088,-4.59375 -4.93018,-4.59375 -3.20752,0 -5.08887,2.11914 -5.08887,4.75293 0,2.75195 2,4.61279 4.91065,4.61279 3.56396,0 5.1084,-2.4751 5.1084,-4.75147 0,0 0,-0.0205 0,-0.0205 z" /><path
       inkscape:connector-curvature="0"
       id="path262"
       style="fill:#231f20;fill-opacity:1;fill-rule:nonzero;stroke:none"
       d="m 134.21182,268.08564 c -1.01026,0 -1.80225,-0.0195 -2.59424,-0.0791 0,0 0,1.54444 0,1.54444 0,0 1.56445,0.0991 1.56445,0.0991 0,0 0,0.0396 0,0.0396 -0.89111,0.4751 -1.78223,1.58398 -1.78223,3.16797 0,1.32666 0.792,3.38574 4.07911,3.38574 0,0 5.72216,0 5.72216,0 0,0 0,-1.74219 0,-1.74219 0,0 -5.52441,0 -5.52441,0 -1.54443,0 -2.85107,-0.57422 -2.85107,-2.21777 0,-1.12842 0.81201,-2.01953 1.78222,-2.33643 0.21778,-0.0791 0.53418,-0.11865 0.81153,-0.11865 0,0 5.78173,0 5.78173,0 0,0 0,-1.74268 0,-1.74268 0,0 -6.98925,0 -6.98925,0 z" /><path
       inkscape:connector-curvature="0"
       id="path264"
       style="fill:#231f20;fill-opacity:1;fill-rule:nonzero;stroke:none"
       d="m 123.20791,270.26143 c 0,0 -10.35791,4.39843 -10.35791,4.39843 0,0 -10.36035,-4.39843 -10.36035,-4.39843 0,0 10.36035,24.55175 10.36035,24.55175 0,0 10.35791,-24.55175 10.35791,-24.55175 z" /><path
       inkscape:connector-curvature="0"
       id="path270"
       style="fill:#231f20;fill-opacity:1;fill-rule:nonzero;stroke:none"
       d="m 375.42813,311.05244 c 0,0 -2.64161,-10.95459 -2.64161,-10.95459 0,0 -9.71875,-5.70898 -9.71875,-5.70898 0,0 25.92871,-6.31397 25.92871,-6.31397 0,0 -13.56835,22.97754 -13.56835,22.97754 z" /><path
       inkscape:connector-curvature="0"
       id="path272"
       style="fill:#231f20;fill-opacity:1;fill-rule:nonzero;stroke:none"
       d="m 260.84316,332.04316 c 0,0 2.64063,10.95459 2.64063,10.95459 0,0 9.71875,5.70899 9.71875,5.70899 0,0 -25.92774,6.31396 -25.92774,6.31396 0,0 13.56836,-22.97754 13.56836,-22.97754 z" /><path
       inkscape:connector-curvature="0"
       id="path274"
       style="fill:#231f20;fill-opacity:1;fill-rule:nonzero;stroke:none"
       d="m 124.34023,164.0334 c 0,0 10.35791,-4.39942 10.35791,-4.39942 0,0 10.36036,4.39942 10.36036,4.39942 0,0 -10.36036,-24.55176 -10.36036,-24.55176 0,0 -10.35791,24.55176 -10.35791,24.55176 z" /><path
       inkscape:connector-curvature="0"
       id="path276"
       style="fill:#231f20;fill-opacity:1;fill-rule:nonzero;stroke:none"
       d="m 267.39834,86.89473 c 1.00635,0.0166 2.24854,0.3457 3.33447,1.06738 1.61084,1.06934 1.99951,2.52637 1.16992,3.77539 -0.74511,1.12207 -1.84179,1.35938 -3.89697,0.88086 -2.47168,-0.59863 -4.39941,-0.36523 -5.5293,1.33594 -1.2622,1.90039 -0.625,4.35742 1.7461,5.93164 1.23047,0.81738 2.34619,1.14062 3.07519,1.18164 0,0 0.41895,-1.57324 0.41895,-1.57324 -0.53613,-0.0176 -1.57959,-0.21387 -2.68359,-0.94727 -1.66456,-1.10547 -1.63721,-2.52246 -1.08448,-3.35449 0.75733,-1.14063 1.87207,-1.20801 3.98828,-0.74219 2.60352,0.55566 4.28418,0.26367 5.47413,-1.52832 1.25,-1.88184 0.96826,-4.44238 -1.90967,-6.35352 -1.17627,-0.78125 -2.70117,-1.27343 -3.6416,-1.27148 0,0 -0.46143,1.59766 -0.46143,1.59766 z" /><path
       inkscape:connector-curvature="0"
       id="path278"
       style="fill:#231f20;fill-opacity:1;fill-rule:nonzero;stroke:none"
       d="m 280.77139,94.44551 c 1.5205,1.00976 1.71093,3.19629 0.38867,5.1875 -0.98535,1.4834 -2.96485,2.85547 -4.84766,1.60547 -1.86426,-1.23828 -1.5249,-3.5166 -0.41894,-5.18164 1.27392,-1.91797 3.32177,-2.64551 4.85986,-1.62403 0,0 0.0181,0.0127 0.0181,0.0127 z m 0.73877,-1.23047 c -2.35303,-1.5625 -5.35254,-1.05078 -7.19141,1.71777 -1.94727,2.93262 -1.15234,5.9375 1.25488,7.53614 2.51563,1.66992 5.43067,0.97265 7.19776,-1.68848 2.16357,-3.25781 0.83838,-6.17188 -1.24317,-7.55371 0,0 -0.0181,-0.0117 -0.0181,-0.0117 z" /><path
       inkscape:connector-curvature="0"
       id="path280"
       style="fill:#231f20;fill-opacity:1;fill-rule:nonzero;stroke:none"
       d="m 279.21523,110.49531 c 0,0 1.59278,1.05762 1.59278,1.05762 0,0 8.53369,-12.85059 8.53369,-12.85059 0,0 -1.59277,-1.05761 -1.59277,-1.05761 0,0 -8.5337,12.85058 -8.5337,12.85058 z" /><path
       inkscape:connector-curvature="0"
       id="path282"
       style="fill:#231f20;fill-opacity:1;fill-rule:nonzero;stroke:none"
       d="m 291.98379,100.45625 c 0,0 -5.81738,8.76074 -5.81738,8.76074 0,0 1.59277,1.05762 1.59277,1.05762 0,0 5.81738,-8.75977 5.81738,-8.75977 0,0 -1.59277,-1.05859 -1.59277,-1.05859 z m -6.12695,10.87598 c -0.59668,-0.39649 -1.30762,-0.19043 -1.68018,0.37109 -0.37256,0.56055 -0.25684,1.28906 0.3584,1.69824 0.61523,0.40821 1.31445,0.22071 1.68701,-0.34082 0.37207,-0.56054 0.28662,-1.2959 -0.34717,-1.71679 0,0 -0.0181,-0.0117 -0.0181,-0.0117 z" /><path
       inkscape:connector-curvature="0"
       id="path284"
       style="fill:#231f20;fill-opacity:1;fill-rule:nonzero;stroke:none"
       d="m 298.74258,112.42988 c -0.14453,0.2168 -0.33106,0.45801 -0.5293,0.63965 -0.89648,0.83887 -2.31836,1.09473 -3.51269,0.30176 -1.64649,-1.09375 -1.66309,-3.19141 -0.38868,-5.10938 1.18946,-1.79199 3.04981,-2.66894 4.75196,-1.53906 1.06738,0.70899 1.56347,2.08203 1.07226,3.45117 -0.0898,0.25293 -0.21582,0.48243 -0.38476,0.73536 0,0 -1.00879,1.5205 -1.00879,1.5205 z m -3.49219,8.71387 c 0,0 7.03125,-10.58789 7.03125,-10.58789 0.5166,-0.77832 1.12402,-1.65332 1.5752,-2.21484 0,0 -1.42969,-0.94922 -1.42969,-0.94922 0,0 -1.08203,1.47265 -1.08203,1.47265 0,0 -0.0361,-0.0244 -0.0361,-0.0244 0.16016,-1.30176 -0.39648,-2.74121 -1.82714,-3.69043 -2.11719,-1.40625 -4.95411,-0.70801 -6.72071,1.95215 -1.96533,2.91992 -1.31543,5.90722 0.80274,7.31347 1.35742,0.90137 2.68261,0.86915 3.51953,0.4336 0,0 0.0361,0.0244 0.0361,0.0244 0,0 -3.46094,5.21289 -3.46094,5.21289 0,0 1.5918,1.05762 1.5918,1.05762 z" /><path
       inkscape:connector-curvature="0"
       id="path286"
       style="fill:#231f20;fill-opacity:1;fill-rule:nonzero;stroke:none"
       d="m 306.42617,110.04805 c 0,0 -5.8164,8.75976 -5.8164,8.75976 0,0 1.59277,1.05762 1.59277,1.05762 0,0 5.81738,-8.75977 5.81738,-8.75977 0,0 -1.59375,-1.05761 -1.59375,-1.05761 z m -6.12597,10.875 c -0.59766,-0.39649 -1.3086,-0.19043 -1.68067,0.37109 -0.37207,0.56055 -0.25683,1.29004 0.3584,1.69824 0.61523,0.40918 1.31445,0.22071 1.68652,-0.33984 0.37305,-0.56152 0.28711,-1.29688 -0.34668,-1.7168 0,0 -0.0176,-0.0127 -0.0176,-0.0127 z" /><path
       inkscape:connector-curvature="0"
       id="path288"
       style="fill:#231f20;fill-opacity:1;fill-rule:nonzero;stroke:none"
       d="m 310.80605,112.95625 c 0,0 -5.01171,7.54688 -5.01171,7.54688 0,0 -1.21289,-0.80567 -1.21289,-0.80567 0,0 -0.80469,1.21387 -0.80469,1.21387 0,0 1.21191,0.80469 1.21191,0.80469 0,0 -0.27637,0.41601 -0.27637,0.41601 -0.81738,1.23145 -1.27246,2.54492 -0.99902,3.74414 0.21289,0.97559 0.85254,1.73926 1.57617,2.22071 0.5791,0.38476 1.13379,0.57031 1.52637,0.64746 0,0 0.61816,-1.36231 0.61816,-1.36231 -0.32617,-0.0596 -0.69335,-0.17383 -1.16406,-0.48633 -1.33984,-0.88965 -0.9082,-2.32422 -0.0186,-3.66308 0,0 0.3125,-0.47071 0.3125,-0.47071 0,0 2.11718,1.40625 2.11718,1.40625 0,0 0.80567,-1.21289 0.80567,-1.21289 0,0 -2.09961,-1.39453 -2.09961,-1.39453 0,0 5.01172,-7.54687 5.01172,-7.54687 0,0 -1.59278,-1.05762 -1.59278,-1.05762 z" /><path
       inkscape:connector-curvature="0"
       id="path290"
       style="fill:#231f20;fill-opacity:1;fill-rule:nonzero;stroke:none"
       d="m 315.94668,116.36934 c 0,0 -5.81738,8.75976 -5.81738,8.75976 0,0 1.59277,1.0586 1.59277,1.0586 0,0 5.81738,-8.76075 5.81738,-8.76075 0,0 -1.59277,-1.05761 -1.59277,-1.05761 z m -6.12695,10.87597 c -0.59668,-0.39648 -1.30762,-0.19043 -1.68067,0.37012 -0.37207,0.56152 -0.25683,1.29004 0.3584,1.69922 0.61621,0.4082 1.31445,0.21973 1.6875,-0.34082 0.37207,-0.56055 0.28613,-1.2959 -0.34766,-1.7168 0,0 -0.0176,-0.0117 -0.0176,-0.0117 z" /><path
       inkscape:connector-curvature="0"
       id="path292"
       style="fill:#231f20;fill-opacity:1;fill-rule:nonzero;stroke:none"
       d="m 326.22109,123.63594 c -0.28418,-0.47559 -1.00293,-1.39551 -2.17968,-2.17676 -2.64161,-1.75488 -5.55176,-1.10547 -7.3418,1.5918 -1.79102,2.69629 -1.25488,5.89453 1.60449,7.79394 0.94141,0.625 1.92969,0.94238 2.52051,0.9961 0,0 0.44336,-1.45313 0.44336,-1.45313 -0.5127,-0.0527 -1.25391,-0.2334 -2.12207,-0.80957 -2.00879,-1.33398 -2.09766,-3.55762 -0.88379,-5.38574 1.3457,-2.02735 3.47852,-2.41016 5.21582,-1.25684 0.90527,0.60156 1.3584,1.21485 1.67871,1.71485 0,0 1.06445,-1.01465 1.06445,-1.01465 z" /><path
       inkscape:connector-curvature="0"
       id="path294"
       style="fill:#231f20;fill-opacity:1;fill-rule:nonzero;stroke:none"
       d="m 329.95449,132.11348 c -1.76172,-1.11817 -3.53027,-2.73535 -2.40039,-4.43653 0.69727,-1.0498 1.69727,-1.06347 2.49317,-0.53515 1.1582,0.76953 1.41992,1.98633 1.18066,2.89648 -0.0537,0.19922 -0.15625,0.3916 -0.26465,0.55469 0,0 -1.00879,1.52051 -1.00879,1.52051 z m 3.13086,-1.33789 c 0.50488,-0.75977 1.0332,-1.47754 1.52051,-2.01465 0,0 -1.42969,-0.94922 -1.42969,-0.94922 0,0 -0.87793,1.00683 -0.87793,1.00683 0,0 -0.0547,-0.0351 -0.0547,-0.0351 -0.0137,-1.00098 -0.56445,-2.25293 -1.8125,-3.08203 -1.77441,-1.17774 -3.50878,-0.53028 -4.3496,0.73633 -1.40625,2.11816 -0.29297,4.52636 3.10253,6.75585 0,0 -0.11914,0.18067 -0.11914,0.18067 -0.48144,0.72363 -1.55761,1.91308 -3.33691,0.70508 -0.83301,-0.55274 -1.52734,-1.35352 -1.86621,-2.17774 0,0 -1.07129,0.82715 -1.07129,0.82715 0.42383,0.93359 1.28711,1.9502 2.39062,2.68359 2.69727,1.79102 4.5625,0.39551 5.72852,-1.36035 0,0 2.17578,-3.27636 2.17578,-3.27636 z" /><path
       inkscape:connector-curvature="0"
       id="path296"
       style="fill:#231f20;fill-opacity:1;fill-rule:nonzero;stroke:none"
       d="m 331.66641,142.45723 c 0,0 1.39355,-2.09961 1.39355,-2.09961 0,0 2.28027,1.51465 2.28027,1.51465 0,0 0.80567,-1.21387 0.80567,-1.21387 0,0 -2.28027,-1.51367 -2.28027,-1.51367 0,0 3.13671,-4.72364 3.13671,-4.72364 0.72168,-1.08593 1.4375,-1.49707 2.32422,-0.9082 0.43457,0.28809 0.66407,0.49316 0.85157,0.72168 0,0 0.87695,-1.16406 0.87695,-1.16406 -0.23535,-0.31348 -0.65137,-0.7461 -1.26758,-1.15528 -0.74121,-0.49218 -1.50684,-0.63671 -2.16406,-0.47265 -0.75879,0.20019 -1.45606,0.8584 -2.1416,1.89062 0,0 -3.17286,4.77735 -3.17286,4.77735 0,0 -1.35742,-0.90137 -1.35742,-0.90137 0,0 -0.80566,1.21289 -0.80566,1.21289 0,0 1.35742,0.90137 1.35742,0.90137 0,0 -1.06934,1.61133 -1.06934,1.61133 0,0 1.23243,1.52246 1.23243,1.52246 z" /><path
       inkscape:connector-curvature="0"
       id="path298"
       style="fill:#231f20;fill-opacity:1;fill-rule:nonzero;stroke:none"
       d="m 342.94961,134.30098 c 0,0 -5.81738,8.76074 -5.81738,8.76074 0,0 1.59277,1.05762 1.59277,1.05762 0,0 5.81738,-8.75977 5.81738,-8.75977 0,0 -1.59277,-1.05859 -1.59277,-1.05859 z m -6.12695,10.87597 c -0.59766,-0.39648 -1.30762,-0.19043 -1.68067,0.3711 -0.37207,0.56054 -0.25683,1.28906 0.3584,1.69824 0.61524,0.4082 1.31445,0.2207 1.6875,-0.34082 0.37207,-0.56055 0.28613,-1.2959 -0.34766,-1.7168 0,0 -0.0176,-0.0117 -0.0176,-0.0117 z" /><path
       inkscape:connector-curvature="0"
       id="path300"
       style="fill:#231f20;fill-opacity:1;fill-rule:nonzero;stroke:none"
       d="m 350.14297,140.51289 c 1.52051,1.00977 1.71191,3.19629 0.38965,5.1875 -0.98535,1.48438 -2.96582,2.85547 -4.84864,1.60547 -1.86328,-1.23828 -1.52441,-3.51563 -0.41894,-5.18164 1.27441,-1.91797 3.32226,-2.64453 4.86035,-1.62305 0,0 0.0176,0.0117 0.0176,0.0117 z m 0.73926,-1.23047 c -2.35352,-1.5625 -5.35254,-1.05078 -7.19141,1.71875 -1.94727,2.93164 -1.15234,5.9375 1.25488,7.53516 2.51563,1.6709 5.43067,0.97265 7.19727,-1.6875 2.16406,-3.25781 0.83887,-6.17188 -1.24317,-7.55371 0,0 -0.0176,-0.0127 -0.0176,-0.0127 z" /><path
       inkscape:connector-curvature="0"
       id="path302"
       style="fill:#231f20;fill-opacity:1;fill-rule:nonzero;stroke:none"
       d="m 352.87832,150.10176 c -0.61328,0.92285 -1.11133,1.63476 -1.64746,2.32226 0,0 1.41211,0.9375 1.41211,0.9375 0,0 1.04004,-1.36914 1.04004,-1.36914 0,0 0.0361,0.0234 0.0361,0.0234 -0.10644,1.10352 0.36621,2.59082 1.81445,3.55176 1.21289,0.80566 3.5752,1.33105 5.57032,-1.67285 0,0 3.47363,-5.23047 3.47363,-5.23047 0,0 -1.59277,-1.05762 -1.59277,-1.05762 0,0 -3.35254,5.04981 -3.35254,5.04981 -0.9375,1.41113 -2.25586,2.25683 -3.75782,1.25976 -1.03222,-0.68555 -1.35351,-1.96777 -1.05468,-3.04687 0.0605,-0.24707 0.21582,-0.56055 0.38476,-0.81446 0,0 3.50879,-5.28515 3.50879,-5.28515 0,0 -1.59277,-1.05762 -1.59277,-1.05762 0,0 -4.24219,6.38965 -4.24219,6.38965 z" /><path
       inkscape:connector-curvature="0"
       id="path304"
       style="fill:#231f20;fill-opacity:1;fill-rule:nonzero;stroke:none"
       d="m 299.25625,91.56758 c 0,0 6.56934,4.36328 6.56934,4.36328 0,0 0.87793,-1.32129 0.87793,-1.32129 0,0 -4.97754,-3.30469 -4.97754,-3.30469 0,0 2.69238,-4.05468 2.69238,-4.05468 0,0 4.59668,3.05273 4.59668,3.05273 0,0 0.86523,-1.30371 0.86523,-1.30371 0,0 -4.59668,-3.05274 -4.59668,-3.05274 0,0 3.66602,-5.51953 3.66602,-5.51953 0,0 -1.59277,-1.05761 -1.59277,-1.05761 0,0 -8.10059,12.19824 -8.10059,12.19824 z" /><path
       inkscape:connector-curvature="0"
       id="path306"
       style="fill:#231f20;fill-opacity:1;fill-rule:nonzero;stroke:none"
       d="m 321.24551,92.03438 c 0.60058,-0.9043 1.14746,-1.68946 1.6582,-2.34083 0,0 -1.41211,-0.9375 -1.41211,-0.9375 0,0 -1.03906,1.37012 -1.03906,1.37012 0,0 -0.0361,-0.0244 -0.0361,-0.0244 0.0703,-0.97071 -0.25879,-2.51856 -1.81543,-3.55176 -1.375,-0.91309 -3.53809,-1.22949 -5.56934,1.83008 0,0 -3.40137,5.12207 -3.40137,5.12207 0,0 1.5918,1.05664 1.5918,1.05664 0,0 3.20996,-4.83203 3.20996,-4.83203 1.10547,-1.66504 2.3877,-2.45703 3.81738,-1.50684 1.06739,0.70899 1.31641,1.94336 1.12598,2.85938 -0.0537,0.27734 -0.19238,0.60351 -0.39648,0.91113 0,0 -3.55762,5.35742 -3.55762,5.35742 0,0 1.59277,1.05762 1.59277,1.05762 0,0 4.23145,-6.37109 4.23145,-6.37109 z" /><path
       inkscape:connector-curvature="0"
       id="path308"
       style="fill:#231f20;fill-opacity:1;fill-rule:nonzero;stroke:none"
       d="m 324.18691,92.86641 c 0.68164,0.0351 1.7295,0.26172 2.52637,0.79101 1.13965,0.75684 1.31055,1.67871 0.81738,2.4209 -0.50488,0.76074 -1.23339,0.87598 -2.68066,0.54102 -1.97656,-0.47852 -3.28418,-0.12012 -3.98145,0.92968 -0.93652,1.41114 -0.54785,3.33887 1.31641,4.57715 0.88672,0.58887 1.82129,0.87012 2.49609,0.875 0,0 0.37696,-1.39258 0.37696,-1.39258 -0.47559,-0.0293 -1.31348,-0.14257 -2.12793,-0.68359 -0.94141,-0.625 -1.08789,-1.50391 -0.65528,-2.15625 0.49317,-0.74121 1.2168,-0.73047 2.64454,-0.4082 1.875,0.43652 3.17675,0.20508 4.05371,-1.11524 1.03418,-1.55761 0.54199,-3.44824 -1.50293,-4.80664 -0.95899,-0.63672 -2.01367,-0.97265 -2.87012,-1.01855 0,0 -0.41309,1.44629 -0.41309,1.44629 z" /><path
       inkscape:connector-curvature="0"
       id="path310"
       style="fill:#231f20;fill-opacity:1;fill-rule:nonzero;stroke:none"
       d="m 332.64102,96.15938 c 0,0 -5.81739,8.75976 -5.81739,8.75976 0,0 1.59278,1.05859 1.59278,1.05859 0,0 5.81738,-8.76074 5.81738,-8.76074 0,0 -1.59277,-1.05761 -1.59277,-1.05761 z m -6.12696,10.87597 c -0.59668,-0.39648 -1.30761,-0.19043 -1.68066,0.37012 -0.37207,0.56152 -0.25684,1.29004 0.3584,1.69922 0.61621,0.4082 1.31445,0.21972 1.6875,-0.34082 0.37207,-0.56055 0.28613,-1.2959 -0.34766,-1.7168 0,0 -0.0176,-0.0117 -0.0176,-0.0117 z" /><path
       inkscape:connector-curvature="0"
       id="path312"
       style="fill:#231f20;fill-opacity:1;fill-rule:nonzero;stroke:none"
       d="m 339.83438,102.37129 c 1.5205,1.00976 1.71093,3.19629 0.38867,5.1875 -0.98535,1.4834 -2.96485,2.85547 -4.84766,1.60547 -1.86426,-1.23828 -1.52441,-3.5166 -0.41894,-5.18164 1.27441,-1.91797 3.32128,-2.64551 4.86035,-1.62403 0,0 0.0176,0.0127 0.0176,0.0127 z m 0.73925,-1.23047 c -2.35351,-1.5625 -5.35254,-1.05078 -7.1914,1.71777 -1.94727,2.93262 -1.15235,5.9375 1.25488,7.53614 2.51465,1.66992 5.43066,0.97265 7.19727,-1.68848 2.16308,-3.25781 0.83789,-6.17187 -1.24317,-7.55371 0,0 -0.0176,-0.0117 -0.0176,-0.0117 z" /><path
       inkscape:connector-curvature="0"
       id="path314"
       style="fill:#231f20;fill-opacity:1;fill-rule:nonzero;stroke:none"
       d="m 342.56973,111.95918 c -0.61328,0.92285 -1.11231,1.63477 -1.64746,2.32324 0,0 1.41211,0.9375 1.41211,0.9375 0,0 1.04003,-1.37012 1.04003,-1.37012 0,0 0.0361,0.0244 0.0361,0.0244 -0.10645,1.10254 0.36621,2.58984 1.81347,3.55176 1.21289,0.80468 3.57618,1.33105 5.57129,-1.67383 0,0 3.47364,-5.23047 3.47364,-5.23047 0,0 -1.59278,-1.05762 -1.59278,-1.05762 0,0 -3.35351,5.04981 -3.35351,5.04981 -0.9375,1.41211 -2.25489,2.25781 -3.75782,1.25976 -1.03125,-0.68457 -1.35254,-1.96777 -1.05371,-3.04687 0.0596,-0.24707 0.21582,-0.56055 0.38379,-0.81348 0,0 3.50977,-5.28515 3.50977,-5.28515 0,0 -1.59278,-1.05762 -1.59278,-1.05762 0,0 -4.24218,6.38867 -4.24218,6.38867 z" /><path
       inkscape:connector-curvature="0"
       id="path316"
       style="fill:#231f20;fill-opacity:1;fill-rule:nonzero;stroke:none"
       d="m 369.61074,115.99727 c 0,0 -2.33594,11.02539 -2.33594,11.02539 0,0 -9.55859,5.97363 -9.55859,5.97363 0,0 26.0918,5.59668 26.0918,5.59668 0,0 -14.19727,-22.5957 -14.19727,-22.5957 z" /><path
       inkscape:connector-curvature="0"
       id="path318"
       style="fill:#231f20;fill-opacity:1;fill-rule:nonzero;stroke:none"
       d="m 256.73281,97.64961 c 0,0 2.33838,-11.02441 2.33838,-11.02441 0,0 9.55713,-5.97461 9.55713,-5.97461 0,0 -26.0918,-5.59668 -26.0918,-5.59668 0,0 14.19629,22.5957 14.19629,22.5957 z" /></g></svg>