<?xml version="1.0" encoding="UTF-8" standalone="no"?>
<!-- Created with Inkscape (http://www.inkscape.org/) -->

<svg
   xmlns:ns0="http://www.iki.fi/pav/software/textext/"
   xmlns:dc="http://purl.org/dc/elements/1.1/"
   xmlns:cc="http://creativecommons.org/ns#"
   xmlns:rdf="http://www.w3.org/1999/02/22-rdf-syntax-ns#"
   xmlns:svg="http://www.w3.org/2000/svg"
   xmlns="http://www.w3.org/2000/svg"
   xmlns:sodipodi="http://sodipodi.sourceforge.net/DTD/sodipodi-0.dtd"
   xmlns:inkscape="http://www.inkscape.org/namespaces/inkscape"
   width="210mm"
   height="297mm"
   viewBox="0 0 210 297"
   version="1.1"
   id="svg8"
   inkscape:version="0.92.2 (5c3e80d, 2017-08-06)"
   sodipodi:docname="rods.svg">
  <sodipodi:namedview
     id="base"
     pagecolor="#ffffff"
     bordercolor="#666666"
     borderopacity="1.0"
     inkscape:pageopacity="0.0"
     inkscape:pageshadow="2"
     inkscape:zoom="0.58888386"
     inkscape:cx="158.55918"
     inkscape:cy="474.31878"
     inkscape:document-units="mm"
     inkscape:current-layer="layer1"
     showgrid="false"
     inkscape:window-width="1920"
     inkscape:window-height="1016"
     inkscape:window-x="0"
     inkscape:window-y="27"
     inkscape:window-maximized="1">
    <inkscape:grid
       type="xygrid"
       id="grid32" />
  </sodipodi:namedview>
  <defs
     id="defs2">
    <marker
       inkscape:stockid="Arrow1Lstart"
       orient="auto"
       refY="0.0"
       refX="0.0"
       id="Arrow1Lstart"
       style="overflow:visible"
       inkscape:isstock="true">
      <path
         id="path4625"
         d="M 0.0,0.0 L 5.0,-5.0 L -12.5,0.0 L 5.0,5.0 L 0.0,0.0 z "
         style="fill-rule:evenodd;stroke:#000000;stroke-width:1pt;stroke-opacity:1;fill:#000000;fill-opacity:1"
         transform="scale(0.8) translate(12.5,0)" />
    </marker>
    <marker
       inkscape:stockid="Arrow1Lend"
       orient="auto"
       refY="0.0"
       refX="0.0"
       id="Arrow1Lend"
       style="overflow:visible;"
       inkscape:isstock="true">
      <path
         id="path4628"
         d="M 0.0,0.0 L 5.0,-5.0 L -12.5,0.0 L 5.0,5.0 L 0.0,0.0 z "
         style="fill-rule:evenodd;stroke:#000000;stroke-width:1pt;stroke-opacity:1;fill:#000000;fill-opacity:1"
         transform="scale(0.8) rotate(180) translate(12.5,0)" />
    </marker>
    <marker
       inkscape:stockid="Arrow1Lstart"
       orient="auto"
       refY="0"
       refX="0"
       id="Arrow1Lstart-2"
       style="overflow:visible"
       inkscape:isstock="true">
      <path
         inkscape:connector-curvature="0"
         id="path4625-7"
         d="M 0,0 5,-5 -12.5,0 5,5 Z"
         style="fill:#000000;fill-opacity:1;fill-rule:evenodd;stroke:#000000;stroke-width:1.00000003pt;stroke-opacity:1"
         transform="matrix(0.8,0,0,0.8,10,0)" />
    </marker>
    <marker
       inkscape:stockid="Arrow1Lend"
       orient="auto"
       refY="0"
       refX="0"
       id="Arrow1Lend-0"
       style="overflow:visible"
       inkscape:isstock="true">
      <path
         inkscape:connector-curvature="0"
         id="path4628-9"
         d="M 0,0 5,-5 -12.5,0 5,5 Z"
         style="fill:#000000;fill-opacity:1;fill-rule:evenodd;stroke:#000000;stroke-width:1.00000003pt;stroke-opacity:1"
         transform="matrix(-0.8,0,0,-0.8,-10,0)" />
    </marker>
  </defs>
  <metadata
     id="metadata5">
    <rdf:RDF>
      <cc:Work
         rdf:about="">
        <dc:format>image/svg+xml</dc:format>
        <dc:type
           rdf:resource="http://purl.org/dc/dcmitype/StillImage" />
        <dc:title></dc:title>
      </cc:Work>
    </rdf:RDF>
  </metadata>
  <g
     id="layer1"
     inkscape:groupmode="layer"
     inkscape:label="Layer 1">
    <g
       id="g4574">
      <ellipse
         style="stroke-width:1;fill:none;stroke:#000000;stroke-opacity:1;stroke-miterlimit:4;stroke-dasharray:none"
         ry="29.104166"
         rx="14.552083"
         cy="119.72916"
         cx="41.010418"
         id="path34" />
      <ellipse
         style="opacity:1;vector-effect:none;fill:none;fill-opacity:1;stroke:#000000;stroke-width:1;stroke-linecap:butt;stroke-linejoin:miter;stroke-miterlimit:4;stroke-dasharray:none;stroke-dashoffset:0;stroke-opacity:1"
         ry="29.104166"
         rx="14.552083"
         cy="119.72916"
         cx="175.92377"
         id="path34-3" />
      <path
         inkscape:connector-curvature="0"
         id="path861"
         d="M 41.010416,90.62499 H 175.94791"
         style="fill:none;fill-rule:evenodd;stroke:#000000;stroke-width:1;stroke-linecap:butt;stroke-linejoin:miter;stroke-opacity:1;stroke-miterlimit:4;stroke-dasharray:none" />
      <path
         inkscape:connector-curvature="0"
         id="path861-7"
         d="M 41.010417,148.83332 H 175.94791"
         style="fill:none;fill-rule:evenodd;stroke:#000000;stroke-width:1;stroke-linecap:butt;stroke-linejoin:miter;stroke-miterlimit:4;stroke-dasharray:none;stroke-opacity:1" />
      <rect
         y="91.124634"
         x="160.07292"
         height="57.206688"
         width="15.771049"
         id="rect4567"
         style="opacity:1;vector-effect:none;fill:#ffffff;fill-opacity:1;stroke:none;stroke-width:0.92692703;stroke-linecap:butt;stroke-linejoin:miter;stroke-miterlimit:4;stroke-dasharray:none;stroke-dashoffset:0;stroke-opacity:1" />
    </g>
    <path
       style="fill:none;fill-rule:evenodd;stroke:#000000;stroke-width:0.5;stroke-linecap:butt;stroke-linejoin:miter;stroke-miterlimit:4;stroke-dasharray:none;stroke-opacity:1;marker-start:url(#Arrow1Lstart);marker-end:url(#Arrow1Lend)"
       d="M 26.458333,154.12499 H 190.5"
       id="path4623"
       inkscape:connector-curvature="0" />
    <g
       style="font-style:normal;font-variant:normal;font-weight:normal;font-stretch:normal;letter-spacing:normal;word-spacing:normal;text-anchor:start;fill:#000000;fill-opacity:1;fill-rule:evenodd;stroke:#000000;stroke-linecap:butt;stroke-linejoin:miter;stroke-miterlimit:10.43299961;stroke-dasharray:none;stroke-dashoffset:0;stroke-opacity:1"
       id="content"
       transform="matrix(1,0,0,-1,-43.740834,820.08227)"
       xml:space="preserve"
       stroke-miterlimit="10.433"
       font-style="normal"
       font-variant="normal"
       font-weight="normal"
       font-stretch="normal"
       font-size-adjust="none"
       letter-spacing="normal"
       word-spacing="normal"
       ns0:text="$l_0$"
       ns0:preamble="/home/malaspor/.config/inkscape/extensions/default_packages.tex"><path
         style="fill:#000000;stroke-width:0"
         inkscape:connector-curvature="0"
         d="m 151.29,664.02 v 0 h -0.01 v 0 0.01 0 0 0 0.01 0 0.01 0 0 0.01 0 l -0.01,0.01 v 0 0.01 0 l -0.01,0.01 v 0 l -0.01,0.01 v 0 0 0 l -0.01,0.01 v 0 0 h -0.01 v 0 0.01 h -0.01 v 0 0 h -0.01 v 0 h -0.01 v 0 l -0.01,0.01 v 0 h -0.01 v 0 h -0.01 v 0 h -0.01 -0.01 c -0.22,0 -0.95,-0.08 -1.21,-0.1 -0.08,-0.01 -0.19,-0.02 -0.19,-0.21 0,-0.11 0.1,-0.11 0.25,-0.11 0.48,0 0.49,-0.09 0.49,-0.17 l -0.03,-0.2 -1.26,-4.96 c -0.03,-0.11 -0.05,-0.18 -0.05,-0.34 0,-0.57 0.44,-0.91 0.91,-0.91 0.33,0 0.58,0.19 0.75,0.55 0.18,0.38 0.29,0.96 0.29,0.98 0,0.1 -0.08,0.1 -0.11,0.1 -0.1,0 -0.11,-0.04 -0.14,-0.18 -0.17,-0.65 -0.36,-1.24 -0.76,-1.24 -0.3,0 -0.3,0.32 -0.3,0.46 0,0.24 0.01,0.29 0.06,0.48 z"
         id="path7239" /><path
         style="fill:#000000;stroke-width:0"
         inkscape:connector-curvature="0"
         d="m 155.29,657.96 v 0.14 0.14 l -0.01,0.13 -0.01,0.12 -0.01,0.13 -0.01,0.12 -0.02,0.11 -0.02,0.11 -0.03,0.11 -0.03,0.11 -0.03,0.1 -0.04,0.1 -0.04,0.1 -0.05,0.09 -0.05,0.1 -0.03,0.04 -0.03,0.05 c -0.22,0.32 -0.65,0.6 -1.21,0.6 v -0.2 c 0.38,0 0.74,-0.23 0.87,-0.63 0.11,-0.37 0.12,-0.87 0.12,-1.48 0,-0.52 0,-1.03 -0.09,-1.47 -0.14,-0.63 -0.62,-0.78 -0.9,-0.78 v 0 c -0.32,0 -0.75,0.18 -0.89,0.75 -0.1,0.42 -0.1,0.98 -0.1,1.5 0,0.51 0,1.04 0.11,1.42 0.15,0.55 0.59,0.69 0.88,0.69 v 0.2 c -1.62,0 -1.62,-1.9 -1.62,-2.4 0,-0.5 0,-2.36 1.62,-2.36 1.62,0 1.62,1.86 1.62,2.36 z"
         id="path7241" /></g>    <g
       id="g4621"
       transform="translate(-32.140049,14.601594)">
      <ellipse
         style="fill:none;stroke:#000000;stroke-width:1;stroke-miterlimit:4;stroke-dasharray:none;stroke-opacity:1"
         ry="29.104166"
         rx="14.552083"
         cy="195.3244"
         cx="73.150467"
         id="path34-35" />
      <path
         sodipodi:nodetypes="cc"
         inkscape:connector-curvature="0"
         id="path861-2"
         d="M 73.150466,166.22024 H 242.03119"
         style="fill:none;fill-rule:evenodd;stroke:#000000;stroke-width:1;stroke-linecap:butt;stroke-linejoin:miter;stroke-miterlimit:4;stroke-dasharray:none;stroke-opacity:1" />
      <path
         sodipodi:nodetypes="cc"
         inkscape:connector-curvature="0"
         id="path861-7-9"
         d="M 73.150467,224.42857 H 241.96437"
         style="fill:none;fill-rule:evenodd;stroke:#000000;stroke-width:1;stroke-linecap:butt;stroke-linejoin:miter;stroke-miterlimit:4;stroke-dasharray:none;stroke-opacity:1" />
      <g
         transform="translate(33.761237)"
         id="g4613">
        <ellipse
           id="path34-3-6"
           cx="208.06381"
           cy="195.3244"
           rx="14.552083"
           ry="29.104166"
           style="opacity:1;vector-effect:none;fill:none;fill-opacity:1;stroke:#000000;stroke-width:1;stroke-linecap:butt;stroke-linejoin:miter;stroke-miterlimit:4;stroke-dasharray:none;stroke-dashoffset:0;stroke-opacity:1" />
        <rect
           style="opacity:1;vector-effect:none;fill:#ffffff;fill-opacity:1;stroke:none;stroke-width:0.92692703;stroke-linecap:butt;stroke-linejoin:miter;stroke-miterlimit:4;stroke-dasharray:none;stroke-dashoffset:0;stroke-opacity:1"
           id="rect4567-1"
           width="15.771049"
           height="57.206688"
           x="192.21297"
           y="166.71988" />
      </g>
    </g>
    <path
       style="fill:none;fill-rule:evenodd;stroke:#000000;stroke-width:0.5;stroke-linecap:butt;stroke-linejoin:miter;stroke-miterlimit:4;stroke-dasharray:none;stroke-opacity:1;marker-start:url(#Arrow1Lstart-2);marker-end:url(#Arrow1Lend-0)"
       d="M 26.472796,244.83928 H 224.00723"
       id="path4623-3"
       inkscape:connector-curvature="0"
       sodipodi:nodetypes="cc" />
    <g
       style="font-style:normal;font-variant:normal;font-weight:normal;font-stretch:normal;letter-spacing:normal;word-spacing:normal;text-anchor:start;fill:#000000;fill-opacity:1;fill-rule:evenodd;stroke:#000000;stroke-linecap:butt;stroke-linejoin:miter;stroke-miterlimit:10.43299961;stroke-dasharray:none;stroke-dashoffset:0;stroke-opacity:1"
       ns0:preamble="/home/malaspor/.config/inkscape/extensions/default_packages.tex"
       ns0:text="$l_1$"
       word-spacing="normal"
       letter-spacing="normal"
       font-size-adjust="none"
       font-stretch="normal"
       font-weight="normal"
       font-variant="normal"
       font-style="normal"
       stroke-miterlimit="10.433"
       xml:space="preserve"
       transform="matrix(1,0,0,-1,-26.829987,911.07102)"
       id="g7343"><path
         id="path7339"
         style="font-style:normal;font-variant:normal;font-weight:normal;font-stretch:normal;letter-spacing:normal;word-spacing:normal;text-anchor:start;fill:#000000;fill-opacity:1;fill-rule:evenodd;stroke:#000000;stroke-width:0;stroke-linecap:butt;stroke-linejoin:miter;stroke-miterlimit:10.43299961;stroke-dasharray:none;stroke-dashoffset:0;stroke-opacity:1"
         word-spacing="normal"
         stroke-miterlimit="10.433"
         letter-spacing="normal"
         font-weight="normal"
         font-variant="normal"
         font-style="normal"
         font-stretch="normal"
         font-size-adjust="none"
         d="m 151.29,664.02 v 0 h -0.01 v 0 0.01 0 0 0 0.01 0 0.01 0 0 0.01 0 l -0.01,0.01 v 0 0.01 0 l -0.01,0.01 v 0 l -0.01,0.01 v 0 0 0 l -0.01,0.01 v 0 0 h -0.01 v 0 0.01 h -0.01 v 0 0 h -0.01 v 0 h -0.01 v 0 l -0.01,0.01 v 0 h -0.01 v 0 h -0.01 v 0 h -0.01 -0.01 c -0.22,0 -0.95,-0.08 -1.21,-0.1 -0.08,-0.01 -0.19,-0.02 -0.19,-0.21 0,-0.11 0.1,-0.11 0.25,-0.11 0.48,0 0.49,-0.09 0.49,-0.17 l -0.03,-0.2 -1.26,-4.96 c -0.03,-0.11 -0.05,-0.18 -0.05,-0.34 0,-0.57 0.44,-0.91 0.91,-0.91 0.33,0 0.58,0.19 0.75,0.55 0.18,0.38 0.29,0.96 0.29,0.98 0,0.1 -0.08,0.1 -0.11,0.1 -0.1,0 -0.11,-0.04 -0.14,-0.18 -0.17,-0.65 -0.36,-1.24 -0.76,-1.24 -0.3,0 -0.3,0.32 -0.3,0.46 0,0.24 0.01,0.29 0.06,0.48 z"
         inkscape:connector-curvature="0" /><path
         id="path7341"
         style="font-style:normal;font-variant:normal;font-weight:normal;font-stretch:normal;letter-spacing:normal;word-spacing:normal;text-anchor:start;fill:#000000;fill-opacity:1;fill-rule:evenodd;stroke:#000000;stroke-width:0;stroke-linecap:butt;stroke-linejoin:miter;stroke-miterlimit:10.43299961;stroke-dasharray:none;stroke-dashoffset:0;stroke-opacity:1"
         word-spacing="normal"
         stroke-miterlimit="10.433"
         letter-spacing="normal"
         font-weight="normal"
         font-variant="normal"
         font-style="normal"
         font-stretch="normal"
         font-size-adjust="none"
         d="m 154.03,660.16 v 0.01 0.01 0.01 0.01 0 0.01 0.01 0.01 0 0.01 l -0.01,0.01 v 0 0.01 0 0.01 0 0.01 0 0.01 0.01 l -0.01,0.01 v 0 l -0.01,0.01 v 0.01 0 l -0.01,0.01 h -0.01 v 0 l -0.01,0.01 h -0.01 -0.01 -0.01 v 0 h -0.01 v 0 l -0.01,0.01 v 0 h -0.01 -0.01 v 0 h -0.01 -0.01 v 0 h -0.01 -0.01 -0.01 -0.01 v 0 h -0.01 -0.01 c -0.45,-0.44 -1.09,-0.45 -1.37,-0.45 v -0.25 c 0.17,0 0.63,0 1.01,0.2 v -3.55 c 0,-0.23 0,-0.32 -0.7,-0.32 h -0.26 v -0.25 c 0.12,0.01 0.98,0.03 1.24,0.03 0.22,0 1.1,-0.02 1.25,-0.03 v 0.25 h -0.26 c -0.7,0 -0.7,0.09 -0.7,0.32 z"
         inkscape:connector-curvature="0" /></g>    <g
       id="g7535"
       transform="matrix(1,0,0,-1,-28.047291,869.776)"
       xml:space="preserve"
       stroke-miterlimit="10.433"
       font-style="normal"
       font-variant="normal"
       font-weight="normal"
       font-stretch="normal"
       font-size-adjust="none"
       letter-spacing="normal"
       word-spacing="normal"
       ns0:text="$T_1$"
       ns0:preamble="/home/malaspor/.config/inkscape/extensions/default_packages.tex"
       style="font-style:normal;font-variant:normal;font-weight:normal;font-stretch:normal;letter-spacing:normal;word-spacing:normal;text-anchor:start;fill:#000000;fill-opacity:1;fill-rule:evenodd;stroke:#000000;stroke-linecap:butt;stroke-linejoin:miter;stroke-miterlimit:10.43299961;stroke-dasharray:none;stroke-dashoffset:0;stroke-opacity:1"><path
         d="m 152.97,663.27 0.01,0.02 v 0.02 l 0.01,0.03 0.01,0.02 v 0.02 l 0.01,0.02 v 0.02 l 0.01,0.02 v 0.01 l 0.01,0.02 0.01,0.01 v 0.02 l 0.01,0.01 v 0.01 l 0.01,0.01 0.01,0.01 v 0.01 l 0.01,0.01 0.01,0.01 v 0.01 h 0.01 l 0.01,0.01 v 0.01 h 0.01 l 0.01,0.01 h 0.01 l 0.01,0.01 h 0.01 0.01 l 0.01,0.01 h 0.01 0.01 c 0.09,0.02 0.42,0.02 0.63,0.02 1.01,0 1.45,-0.04 1.45,-0.81 0,-0.15 -0.04,-0.54 -0.08,-0.8 -0.01,-0.04 -0.03,-0.16 -0.03,-0.19 0,-0.06 0.03,-0.13 0.12,-0.13 0.11,0 0.13,0.08 0.15,0.23 l 0.27,1.73 c 0.01,0.04 0.02,0.14 0.02,0.17 0,0.11 -0.1,0.11 -0.27,0.11 h -5.53 c -0.24,0 -0.25,-0.01 -0.32,-0.2 l -0.6,-1.75 c -0.01,-0.02 -0.06,-0.16 -0.06,-0.18 0,-0.05 0.05,-0.11 0.12,-0.11 0.1,0 0.11,0.06 0.17,0.21 0.54,1.54 0.8,1.72 2.27,1.72 h 0.39 c 0.28,0 0.28,-0.04 0.28,-0.12 0,-0.06 -0.03,-0.18 -0.04,-0.21 l -1.33,-5.3 c -0.09,-0.37 -0.12,-0.48 -1.19,-0.48 -0.36,0 -0.42,0 -0.42,-0.19 0,-0.12 0.11,-0.12 0.17,-0.12 0.27,0 0.55,0.03 0.82,0.03 0.28,0 0.57,0.01 0.85,0.01 0.28,0 0.55,-0.01 0.82,-0.01 0.29,0 0.59,-0.03 0.87,-0.03 0.1,0 0.22,0 0.22,0.2 0,0.11 -0.08,0.11 -0.34,0.11 -0.25,0 -0.38,0 -0.64,0.02 -0.29,0.03 -0.37,0.06 -0.37,0.22 0,0.01 0,0.06 0.04,0.21 z"
         font-size-adjust="none"
         font-stretch="normal"
         font-style="normal"
         font-variant="normal"
         font-weight="normal"
         letter-spacing="normal"
         stroke-miterlimit="10.433"
         word-spacing="normal"
         style="font-style:normal;font-variant:normal;font-weight:normal;font-stretch:normal;letter-spacing:normal;word-spacing:normal;text-anchor:start;fill:#000000;fill-opacity:1;fill-rule:evenodd;stroke:#000000;stroke-width:0;stroke-linecap:butt;stroke-linejoin:miter;stroke-miterlimit:10.43299961;stroke-dasharray:none;stroke-dashoffset:0;stroke-opacity:1"
         id="path7531"
         inkscape:connector-curvature="0" /><path
         d="m 156.88,660.16 v 0.01 0.01 0.01 0.01 0 0.01 0.01 0.01 h -0.01 v 0.01 0.01 0 0.01 0 0.01 0 0.01 0 0.01 l -0.01,0.01 v 0.01 0 l -0.01,0.01 v 0.01 h -0.01 v 0.01 h -0.01 v 0 l -0.01,0.01 h -0.01 -0.01 -0.01 v 0 h -0.01 v 0 l -0.01,0.01 h -0.01 v 0 h -0.01 v 0 h -0.01 -0.01 -0.01 v 0 h -0.01 -0.01 -0.01 -0.01 v 0 h -0.01 c -0.45,-0.44 -1.09,-0.45 -1.37,-0.45 v -0.25 c 0.16,0 0.63,0 1.01,0.2 v -3.55 c 0,-0.23 0,-0.32 -0.7,-0.32 h -0.26 v -0.25 c 0.12,0.01 0.98,0.03 1.24,0.03 0.22,0 1.1,-0.02 1.25,-0.03 v 0.25 h -0.26 c -0.7,0 -0.7,0.09 -0.7,0.32 z"
         font-size-adjust="none"
         font-stretch="normal"
         font-style="normal"
         font-variant="normal"
         font-weight="normal"
         letter-spacing="normal"
         stroke-miterlimit="10.433"
         word-spacing="normal"
         style="font-style:normal;font-variant:normal;font-weight:normal;font-stretch:normal;letter-spacing:normal;word-spacing:normal;text-anchor:start;fill:#000000;fill-opacity:1;fill-rule:evenodd;stroke:#000000;stroke-width:0;stroke-linecap:butt;stroke-linejoin:miter;stroke-miterlimit:10.43299961;stroke-dasharray:none;stroke-dashoffset:0;stroke-opacity:1"
         id="path7533"
         inkscape:connector-curvature="0" /></g>    <g
       style="font-style:normal;font-variant:normal;font-weight:normal;font-stretch:normal;letter-spacing:normal;word-spacing:normal;text-anchor:start;fill:#000000;fill-opacity:1;fill-rule:evenodd;stroke:#000000;stroke-linecap:butt;stroke-linejoin:miter;stroke-miterlimit:10.43299961;stroke-dasharray:none;stroke-dashoffset:0;stroke-opacity:1"
       ns0:preamble="/home/malaspor/.config/inkscape/extensions/default_packages.tex"
       ns0:text="$T_0$"
       word-spacing="normal"
       letter-spacing="normal"
       font-size-adjust="none"
       font-stretch="normal"
       font-weight="normal"
       font-variant="normal"
       font-style="normal"
       stroke-miterlimit="10.433"
       xml:space="preserve"
       transform="matrix(1,0,0,-1,-45.077907,779.50916)"
       id="g7636"><path
         id="path7632"
         style="font-style:normal;font-variant:normal;font-weight:normal;font-stretch:normal;letter-spacing:normal;word-spacing:normal;text-anchor:start;fill:#000000;fill-opacity:1;fill-rule:evenodd;stroke:#000000;stroke-width:0;stroke-linecap:butt;stroke-linejoin:miter;stroke-miterlimit:10.43299961;stroke-dasharray:none;stroke-dashoffset:0;stroke-opacity:1"
         word-spacing="normal"
         stroke-miterlimit="10.433"
         letter-spacing="normal"
         font-weight="normal"
         font-variant="normal"
         font-style="normal"
         font-stretch="normal"
         font-size-adjust="none"
         d="m 152.97,663.27 0.01,0.02 v 0.02 l 0.01,0.03 0.01,0.02 v 0.02 l 0.01,0.02 v 0.02 l 0.01,0.02 v 0.01 l 0.01,0.02 0.01,0.01 v 0.02 l 0.01,0.01 v 0.01 l 0.01,0.01 0.01,0.01 v 0.01 l 0.01,0.01 0.01,0.01 v 0.01 h 0.01 l 0.01,0.01 v 0.01 h 0.01 l 0.01,0.01 h 0.01 l 0.01,0.01 h 0.01 0.01 l 0.01,0.01 h 0.01 0.01 c 0.09,0.02 0.42,0.02 0.63,0.02 1.01,0 1.45,-0.04 1.45,-0.81 0,-0.15 -0.04,-0.54 -0.08,-0.8 -0.01,-0.04 -0.03,-0.16 -0.03,-0.19 0,-0.06 0.03,-0.13 0.12,-0.13 0.11,0 0.13,0.08 0.15,0.23 l 0.27,1.73 c 0.01,0.04 0.02,0.14 0.02,0.17 0,0.11 -0.1,0.11 -0.27,0.11 h -5.53 c -0.24,0 -0.25,-0.01 -0.32,-0.2 l -0.6,-1.75 c -0.01,-0.02 -0.06,-0.16 -0.06,-0.18 0,-0.05 0.05,-0.11 0.12,-0.11 0.1,0 0.11,0.06 0.17,0.21 0.54,1.54 0.8,1.72 2.27,1.72 h 0.39 c 0.28,0 0.28,-0.04 0.28,-0.12 0,-0.06 -0.03,-0.18 -0.04,-0.21 l -1.33,-5.3 c -0.09,-0.37 -0.12,-0.48 -1.19,-0.48 -0.36,0 -0.42,0 -0.42,-0.19 0,-0.12 0.11,-0.12 0.17,-0.12 0.27,0 0.55,0.03 0.82,0.03 0.28,0 0.57,0.01 0.85,0.01 0.28,0 0.55,-0.01 0.82,-0.01 0.29,0 0.59,-0.03 0.87,-0.03 0.1,0 0.22,0 0.22,0.2 0,0.11 -0.08,0.11 -0.34,0.11 -0.25,0 -0.38,0 -0.64,0.02 -0.29,0.03 -0.37,0.06 -0.37,0.22 0,0.01 0,0.06 0.04,0.21 z"
         inkscape:connector-curvature="0" /><path
         id="path7634"
         style="font-style:normal;font-variant:normal;font-weight:normal;font-stretch:normal;letter-spacing:normal;word-spacing:normal;text-anchor:start;fill:#000000;fill-opacity:1;fill-rule:evenodd;stroke:#000000;stroke-width:0;stroke-linecap:butt;stroke-linejoin:miter;stroke-miterlimit:10.43299961;stroke-dasharray:none;stroke-dashoffset:0;stroke-opacity:1"
         word-spacing="normal"
         stroke-miterlimit="10.433"
         letter-spacing="normal"
         font-weight="normal"
         font-variant="normal"
         font-style="normal"
         font-stretch="normal"
         font-size-adjust="none"
         d="m 158.14,657.96 v 0.14 0.14 l -0.01,0.13 -0.01,0.12 -0.01,0.13 -0.01,0.12 -0.02,0.11 -0.02,0.11 -0.03,0.11 -0.03,0.11 -0.03,0.1 -0.04,0.1 -0.04,0.1 -0.05,0.09 -0.05,0.1 -0.03,0.04 -0.03,0.05 c -0.22,0.32 -0.65,0.6 -1.21,0.6 v -0.2 c 0.38,0 0.74,-0.23 0.87,-0.63 0.11,-0.37 0.12,-0.87 0.12,-1.48 0,-0.52 0,-1.03 -0.1,-1.47 -0.14,-0.63 -0.61,-0.78 -0.89,-0.78 v 0 c -0.32,0 -0.75,0.18 -0.89,0.75 -0.1,0.42 -0.1,0.98 -0.1,1.5 0,0.51 0,1.04 0.11,1.42 0.15,0.55 0.59,0.69 0.88,0.69 v 0.2 c -1.62,0 -1.62,-1.9 -1.62,-2.4 0,-0.5 0,-2.36 1.62,-2.36 1.62,0 1.62,1.86 1.62,2.36 z"
         inkscape:connector-curvature="0" /></g>  </g>
</svg>
